<?xml version="1.0" standalone="no"?>
 <!DOCTYPE svg PUBLIC "-//W3C//DTD SVG 1.1//EN" 
 "http://www.w3.org/Graphics/SVG/1.1/DTD/svg11.dtd"> 
<svg
  xmlns:svg="http://www.w3.org/2000/svg"
  xmlns="http://www.w3.org/2000/svg"
  xmlns:xlink="http://www.w3.org/1999/xlink"
  version="1.1"
  width="297.002200mm" height="210.007200mm" viewBox="0.000000 0.000000 297.002200 210.007200">
<title>SVG Image created as 38-04-usb-sleuth-Edge_Cuts.svg date 2024/04/10 17:59:08 </title>
  <desc>Image generated by PCBNEW </desc>
<g style="fill:#000000; fill-opacity:1.000000;stroke:#000000; stroke-opacity:1.000000;
stroke-linecap:round; stroke-linejoin:round;"
 transform="translate(0 0) scale(1 1)">
</g>
<g style="fill:#000000; fill-opacity:0.0; 
stroke:#000000; stroke-width:0.000000; stroke-opacity:1; 
stroke-linecap:round; stroke-linejoin:round;">
</g>
<g style="fill:#000000; fill-opacity:0.0; 
stroke:#000000; stroke-width:0.254000; stroke-opacity:1; 
stroke-linecap:round; stroke-linejoin:round;">
<circle cx="172.466000" cy="146.304000" r="1.615448" /> 
<circle cx="137.414000" cy="146.304000" r="1.615448" /> 
<circle cx="137.414000" cy="74.676000" r="1.602013" /> 
<circle cx="172.466000" cy="74.676000" r="1.606437" /> 
</g>
<g style="fill:#000000; fill-opacity:0.0; 
stroke:#000000; stroke-width:0.038100; stroke-opacity:1; 
stroke-linecap:round; stroke-linejoin:round;">
<path d="M199.669399 115.316000 A44.988894 44.988894 0.0 0 0 199.610622 105.147253" />
<path d="M195.930213 91.925040
L195.935600 105.156000
" />
<path d="M112.115600 109.981773
L109.938132 109.981884
" />
<path d="M109.938131 109.981883 A45.004736 45.004736 0.0 0 0 198.145399 123.088399" />
<path d="M112.115600 96.672400
L112.115600 109.982000
" />
<path d="M198.145400 115.316000
L199.669400 115.316000
" />
<path d="M198.145400 123.088400
L198.145400 115.316000
" />
<path d="M195.930212 91.925040 A44.998392 44.998392 0.0 0 0 112.115599 96.672400" />
<path d="M195.935600 105.156000
L199.610623 105.147253
" />
<g >
</g>
<g >
</g>
<g >
</g>
<g >
</g>
<g >
</g>
<g >
</g>
<g >
</g>
<g >
</g>
<g >
</g>
<g >
</g>
<g >
</g>
<g >
</g>
<g >
</g>
<g >
</g>
<g >
</g>
<g >
</g>
<g >
</g>
<g >
</g>
<g >
</g>
<g >
</g>
<g >
</g>
<g >
</g>
<g >
</g>
<g >
</g>
<g >
</g>
<g >
</g>
<g >
</g>
<g >
</g>
<g >
</g>
<g >
</g>
<g >
</g>
<g >
</g>
<g >
</g>
<g >
</g>
<g >
</g>
<g >
</g>
<g >
</g>
<g >
</g>
<g >
</g>
<g >
</g>
<g >
</g>
<g >
</g>
<g >
</g>
<g >
</g>
<g >
</g>
<g >
</g>
<g >
</g>
<g >
</g>
<g >
</g>
<g >
</g>
<g >
</g>
<g >
</g>
<g >
</g>
<g >
</g>
<g >
</g>
<g >
</g>
<g >
</g>
<g >
</g>
<g >
</g>
<g >
</g>
<g >
</g>
<g >
</g>
<g >
</g>
<g >
</g>
<g >
</g>
<g >
</g>
<g >
</g>
<g >
</g>
<g >
</g>
<g >
</g>
<g >
</g>
</g> 
</svg>
