  0
SECTION
  2
HEADER
  9
$ANGBASE
  50
0.0
  9
$ANGDIR
  70
1
  9
$MEASUREMENT
  70
1
  0
ENDSEC
  0
SECTION
  2
TABLES
  0
TABLE
  2
LTYPE
  70
4
  0
LTYPE
  5
40F
  2
CONTINUOUS
  70
0
  3
Solid line
  72
65
  73
0
  40
0.0
  0
LTYPE
  5
410
  2
DASHDOT
 70
0
  3
Dash Dot ____ _ ____ _
 72
65
 73
4
 40
2.0
 49
1.25
 49
-0.25
 49
0.25
 49
-0.25
  0
LTYPE
  5
411
  2
DASHED
 70
0
  3
Dashed __ __ __ __ __
 72
65
 73
2
 40
0.75
 49
0.5
 49
-0.25
  0
LTYPE
  5
43B
  2
DOTTED
 70
0
  3
Dotted .  .  .  .
 72
65
 73
2
 40
0.2
 49
0.0
 49
-0.2
  0
ENDTAB
  0
TABLE
  2
STYLE
  70
4
  0
STYLE
  2
KICAD
  70
0
  40
0
  41
1
  42
1
  50
0
  71
0
  3
isocp.shx
  0
STYLE
  2
KICADB
  70
0
  40
0
  41
1
  42
1
  50
0
  71
0
  3
isocp.shx
  0
STYLE
  2
KICADI
  70
0
  40
0
  41
1
  42
1
  50
15
  71
0
  3
isocp.shx
  0
STYLE
  2
KICADBI
  70
0
  40
0
  41
1
  42
1
  50
15
  71
0
  3
isocp.shx
  0
ENDTAB
  0
TABLE
  2
LAYER
  70
1
  0
LAYER
  2
BLACK
  70
0
  62
7
  6
CONTINUOUS
  0
ENDTAB
  0
ENDSEC
  0
SECTION
  2
ENTITIES
0
LINE
8
BLACK
6
CONTINUOUS
10
137.8017309999999895
20
-144.6052389999999832
11
138.0505880000000047
21
-144.6820009999999854
0
LINE
8
BLACK
6
CONTINUOUS
10
138.0505880000000047
20
-144.6820009999999854
11
138.2852239999999995
21
-144.7949959999999976
0
LINE
8
BLACK
6
CONTINUOUS
10
138.2852239999999995
20
-144.7949959999999976
11
138.5003989999999874
21
-144.9416989999999998
0
LINE
8
BLACK
6
CONTINUOUS
10
138.5003989999999874
20
-144.9416989999999998
11
138.6913049999999998
21
-145.1188339999999926
0
LINE
8
BLACK
6
CONTINUOUS
10
138.6913049999999998
20
-145.1188339999999926
11
138.8536780000000022
21
-145.3224439999999902
0
LINE
8
BLACK
6
CONTINUOUS
10
138.8536780000000022
20
-145.3224439999999902
11
138.9838909999999998
21
-145.5479799999999955
0
LINE
8
BLACK
6
CONTINUOUS
10
138.9838909999999998
20
-145.5479799999999955
11
139.0790360000000021
21
-145.7904039999999952
0
LINE
8
BLACK
6
CONTINUOUS
10
139.0790360000000021
20
-145.7904039999999952
11
139.1369860000000074
21
-146.0443019999999876
0
LINE
8
BLACK
6
CONTINUOUS
10
139.1369860000000074
20
-146.0443019999999876
11
139.1564479999999833
21
-146.304000000000002
0
LINE
8
BLACK
6
CONTINUOUS
10
139.1564479999999833
20
-146.304000000000002
11
139.1369860000000074
21
-146.563697999999988
0
LINE
8
BLACK
6
CONTINUOUS
10
139.1369860000000074
20
-146.563697999999988
11
139.0790360000000021
21
-146.8175959999999804
0
LINE
8
BLACK
6
CONTINUOUS
10
139.0790360000000021
20
-146.8175959999999804
11
138.9838909999999998
21
-147.0600199999999802
0
LINE
8
BLACK
6
CONTINUOUS
10
138.9838909999999998
20
-147.0600199999999802
11
138.8536780000000022
21
-147.2855559999999855
0
LINE
8
BLACK
6
CONTINUOUS
10
138.8536780000000022
20
-147.2855559999999855
11
138.6913049999999998
21
-147.4891659999999831
0
LINE
8
BLACK
6
CONTINUOUS
10
138.6913049999999998
20
-147.4891659999999831
11
138.5003989999999874
21
-147.6663010000000043
0
LINE
8
BLACK
6
CONTINUOUS
10
138.5003989999999874
20
-147.6663010000000043
11
138.2852239999999995
21
-147.8130040000000065
0
LINE
8
BLACK
6
CONTINUOUS
10
138.2852239999999995
20
-147.8130040000000065
11
138.0505880000000047
21
-147.9259989999999902
0
LINE
8
BLACK
6
CONTINUOUS
10
138.0505880000000047
20
-147.9259989999999902
11
137.8017309999999895
21
-148.0027609999999925
0
LINE
8
BLACK
6
CONTINUOUS
10
137.8017309999999895
20
-148.0027609999999925
11
137.544212999999985
21
-148.0415759999999921
0
LINE
8
BLACK
6
CONTINUOUS
10
137.544212999999985
20
-148.0415759999999921
11
137.2837869999999896
21
-148.0415759999999921
0
LINE
8
BLACK
6
CONTINUOUS
10
137.2837869999999896
20
-148.0415759999999921
11
137.026268999999985
21
-148.0027609999999925
0
LINE
8
BLACK
6
CONTINUOUS
10
137.026268999999985
20
-148.0027609999999925
11
136.7774119999999982
21
-147.9259989999999902
0
LINE
8
BLACK
6
CONTINUOUS
10
136.7774119999999982
20
-147.9259989999999902
11
136.5427760000000035
21
-147.8130040000000065
0
LINE
8
BLACK
6
CONTINUOUS
10
136.5427760000000035
20
-147.8130040000000065
11
136.3276009999999872
21
-147.6663010000000043
0
LINE
8
BLACK
6
CONTINUOUS
10
136.3276009999999872
20
-147.6663010000000043
11
136.1366950000000031
21
-147.4891659999999831
0
LINE
8
BLACK
6
CONTINUOUS
10
136.1366950000000031
20
-147.4891659999999831
11
135.9743220000000008
21
-147.2855559999999855
0
LINE
8
BLACK
6
CONTINUOUS
10
135.9743220000000008
20
-147.2855559999999855
11
135.8441090000000031
21
-147.0600199999999802
0
LINE
8
BLACK
6
CONTINUOUS
10
135.8441090000000031
20
-147.0600199999999802
11
135.7489640000000009
21
-146.8175959999999804
0
LINE
8
BLACK
6
CONTINUOUS
10
135.7489640000000009
20
-146.8175959999999804
11
135.6910139999999956
21
-146.563697999999988
0
LINE
8
BLACK
6
CONTINUOUS
10
135.6910139999999956
20
-146.563697999999988
11
135.6715519999999913
21
-146.304000000000002
0
LINE
8
BLACK
6
CONTINUOUS
10
135.6715519999999913
20
-146.304000000000002
11
135.6910139999999956
21
-146.0443019999999876
0
LINE
8
BLACK
6
CONTINUOUS
10
135.6910139999999956
20
-146.0443019999999876
11
135.7489640000000009
21
-145.7904039999999952
0
LINE
8
BLACK
6
CONTINUOUS
10
135.7489640000000009
20
-145.7904039999999952
11
135.8441090000000031
21
-145.5479799999999955
0
LINE
8
BLACK
6
CONTINUOUS
10
135.8441090000000031
20
-145.5479799999999955
11
135.9743220000000008
21
-145.3224439999999902
0
LINE
8
BLACK
6
CONTINUOUS
10
135.9743220000000008
20
-145.3224439999999902
11
136.1366950000000031
21
-145.1188339999999926
0
LINE
8
BLACK
6
CONTINUOUS
10
136.1366950000000031
20
-145.1188339999999926
11
136.3276009999999872
21
-144.9416989999999998
0
LINE
8
BLACK
6
CONTINUOUS
10
136.3276009999999872
20
-144.9416989999999998
11
136.5427760000000035
21
-144.7949959999999976
0
LINE
8
BLACK
6
CONTINUOUS
10
136.5427760000000035
20
-144.7949959999999976
11
136.7774119999999982
21
-144.6820009999999854
0
LINE
8
BLACK
6
CONTINUOUS
10
136.7774119999999982
20
-144.6820009999999854
11
137.026268999999985
21
-144.6052389999999832
0
LINE
8
BLACK
6
CONTINUOUS
10
137.026268999999985
20
-144.6052389999999832
11
137.2837869999999896
21
-144.5664239999999836
0
LINE
8
BLACK
6
CONTINUOUS
10
137.2837869999999896
20
-144.5664239999999836
11
137.544212999999985
21
-144.5664239999999836
0
LINE
8
BLACK
6
CONTINUOUS
10
137.544212999999985
20
-144.5664239999999836
11
137.8017309999999895
21
-144.6052389999999832
0
LINE
8
BLACK
6
CONTINUOUS
10
135.9408209999999997
20
-146.5498299999999858
11
136.0013759999999934
21
-146.7889549999999872
0
LINE
8
BLACK
6
CONTINUOUS
10
136.0013759999999934
20
-146.7889549999999872
11
136.1004629999999906
21
-147.0148509999999931
0
LINE
8
BLACK
6
CONTINUOUS
10
136.1004629999999906
20
-147.0148509999999931
11
136.2353799999999922
21
-147.2213569999999834
0
LINE
8
BLACK
6
CONTINUOUS
10
136.2353799999999922
20
-147.2213569999999834
11
136.4024469999999951
21
-147.4028399999999976
0
LINE
8
BLACK
6
CONTINUOUS
10
136.4024469999999951
20
-147.4028399999999976
11
136.5971059999999966
21
-147.554349000000002
0
LINE
8
BLACK
6
CONTINUOUS
10
136.5971059999999966
20
-147.554349000000002
11
136.8140479999999854
21
-147.6717519999999979
0
LINE
8
BLACK
6
CONTINUOUS
10
136.8140479999999854
20
-147.6717519999999979
11
137.0473549999999818
21
-147.7518469999999979
0
LINE
8
BLACK
6
CONTINUOUS
10
137.0473549999999818
20
-147.7518469999999979
11
137.2906639999999925
21
-147.7924480000000074
0
LINE
8
BLACK
6
CONTINUOUS
10
137.2906639999999925
20
-147.7924480000000074
11
137.5373359999999821
21
-147.7924480000000074
0
LINE
8
BLACK
6
CONTINUOUS
10
137.5373359999999821
20
-147.7924480000000074
11
137.7806449999999927
21
-147.7518469999999979
0
LINE
8
BLACK
6
CONTINUOUS
10
137.7806449999999927
20
-147.7518469999999979
11
138.0139519999999891
21
-147.6717519999999979
0
LINE
8
BLACK
6
CONTINUOUS
10
138.0139519999999891
20
-147.6717519999999979
11
138.2308940000000064
21
-147.554349000000002
0
LINE
8
BLACK
6
CONTINUOUS
10
138.2308940000000064
20
-147.554349000000002
11
138.4255530000000078
21
-147.4028399999999976
0
LINE
8
BLACK
6
CONTINUOUS
10
138.4255530000000078
20
-147.4028399999999976
11
138.5926199999999824
21
-147.2213569999999834
0
LINE
8
BLACK
6
CONTINUOUS
10
138.5926199999999824
20
-147.2213569999999834
11
138.7275369999999839
21
-147.0148509999999931
0
LINE
8
BLACK
6
CONTINUOUS
10
138.7275369999999839
20
-147.0148509999999931
11
138.8266239999999812
21
-146.7889549999999872
0
LINE
8
BLACK
6
CONTINUOUS
10
138.8266239999999812
20
-146.7889549999999872
11
138.8871790000000033
21
-146.5498299999999858
0
LINE
8
BLACK
6
CONTINUOUS
10
138.8871790000000033
20
-146.5498299999999858
11
138.9075489999999888
21
-146.304000000000002
0
LINE
8
BLACK
6
CONTINUOUS
10
138.9075489999999888
20
-146.304000000000002
11
138.8871790000000033
21
-146.0581699999999898
0
LINE
8
BLACK
6
CONTINUOUS
10
138.8871790000000033
20
-146.0581699999999898
11
138.8266239999999812
21
-145.8190449999999885
0
LINE
8
BLACK
6
CONTINUOUS
10
138.8266239999999812
20
-145.8190449999999885
11
138.7275369999999839
21
-145.5931489999999826
0
LINE
8
BLACK
6
CONTINUOUS
10
138.7275369999999839
20
-145.5931489999999826
11
138.5926199999999824
21
-145.3866429999999923
0
LINE
8
BLACK
6
CONTINUOUS
10
138.5926199999999824
20
-145.3866429999999923
11
138.4255530000000078
21
-145.2051600000000064
0
LINE
8
BLACK
6
CONTINUOUS
10
138.4255530000000078
20
-145.2051600000000064
11
138.2308940000000064
21
-145.0536510000000021
0
LINE
8
BLACK
6
CONTINUOUS
10
138.2308940000000064
20
-145.0536510000000021
11
138.0139519999999891
21
-144.9362480000000062
0
LINE
8
BLACK
6
CONTINUOUS
10
138.0139519999999891
20
-144.9362480000000062
11
137.7806449999999927
21
-144.8561530000000062
0
LINE
8
BLACK
6
CONTINUOUS
10
137.7806449999999927
20
-144.8561530000000062
11
137.5373359999999821
21
-144.8155519999999967
0
LINE
8
BLACK
6
CONTINUOUS
10
137.5373359999999821
20
-144.8155519999999967
11
137.2906639999999925
21
-144.8155519999999967
0
LINE
8
BLACK
6
CONTINUOUS
10
137.2906639999999925
20
-144.8155519999999967
11
137.0473549999999818
21
-144.8561530000000062
0
LINE
8
BLACK
6
CONTINUOUS
10
137.0473549999999818
20
-144.8561530000000062
11
136.8140479999999854
21
-144.9362480000000062
0
LINE
8
BLACK
6
CONTINUOUS
10
136.8140479999999854
20
-144.9362480000000062
11
136.5971059999999966
21
-145.0536510000000021
0
LINE
8
BLACK
6
CONTINUOUS
10
136.5971059999999966
20
-145.0536510000000021
11
136.4024469999999951
21
-145.2051600000000064
0
LINE
8
BLACK
6
CONTINUOUS
10
136.4024469999999951
20
-145.2051600000000064
11
136.2353799999999922
21
-145.3866429999999923
0
LINE
8
BLACK
6
CONTINUOUS
10
136.2353799999999922
20
-145.3866429999999923
11
136.1004629999999906
21
-145.5931489999999826
0
LINE
8
BLACK
6
CONTINUOUS
10
136.1004629999999906
20
-145.5931489999999826
11
136.0013759999999934
21
-145.8190449999999885
0
LINE
8
BLACK
6
CONTINUOUS
10
136.0013759999999934
20
-145.8190449999999885
11
135.9408209999999997
21
-146.0581699999999898
0
LINE
8
BLACK
6
CONTINUOUS
10
135.9408209999999997
20
-146.0581699999999898
11
135.9204509999999857
21
-146.304000000000002
0
LINE
8
BLACK
6
CONTINUOUS
10
135.9204509999999857
20
-146.304000000000002
11
135.9408209999999997
21
-146.5498299999999858
0
LINE
8
BLACK
6
CONTINUOUS
10
172.853730999999982
20
-144.6052389999999832
11
173.1025879999999972
21
-144.6820009999999854
0
LINE
8
BLACK
6
CONTINUOUS
10
173.1025879999999972
20
-144.6820009999999854
11
173.337223999999992
21
-144.7949959999999976
0
LINE
8
BLACK
6
CONTINUOUS
10
173.337223999999992
20
-144.7949959999999976
11
173.5523989999999799
21
-144.9416989999999998
0
LINE
8
BLACK
6
CONTINUOUS
10
173.5523989999999799
20
-144.9416989999999998
11
173.7433049999999923
21
-145.1188339999999926
0
LINE
8
BLACK
6
CONTINUOUS
10
173.7433049999999923
20
-145.1188339999999926
11
173.9056779999999947
21
-145.3224439999999902
0
LINE
8
BLACK
6
CONTINUOUS
10
173.9056779999999947
20
-145.3224439999999902
11
174.0358909999999923
21
-145.5479799999999955
0
LINE
8
BLACK
6
CONTINUOUS
10
174.0358909999999923
20
-145.5479799999999955
11
174.1310359999999946
21
-145.7904039999999952
0
LINE
8
BLACK
6
CONTINUOUS
10
174.1310359999999946
20
-145.7904039999999952
11
174.1889859999999999
21
-146.0443019999999876
0
LINE
8
BLACK
6
CONTINUOUS
10
174.1889859999999999
20
-146.0443019999999876
11
174.2084480000000042
21
-146.304000000000002
0
LINE
8
BLACK
6
CONTINUOUS
10
174.2084480000000042
20
-146.304000000000002
11
174.1889859999999999
21
-146.563697999999988
0
LINE
8
BLACK
6
CONTINUOUS
10
174.1889859999999999
20
-146.563697999999988
11
174.1310359999999946
21
-146.8175959999999804
0
LINE
8
BLACK
6
CONTINUOUS
10
174.1310359999999946
20
-146.8175959999999804
11
174.0358909999999923
21
-147.0600199999999802
0
LINE
8
BLACK
6
CONTINUOUS
10
174.0358909999999923
20
-147.0600199999999802
11
173.9056779999999947
21
-147.2855559999999855
0
LINE
8
BLACK
6
CONTINUOUS
10
173.9056779999999947
20
-147.2855559999999855
11
173.7433049999999923
21
-147.4891659999999831
0
LINE
8
BLACK
6
CONTINUOUS
10
173.7433049999999923
20
-147.4891659999999831
11
173.5523989999999799
21
-147.6663010000000043
0
LINE
8
BLACK
6
CONTINUOUS
10
173.5523989999999799
20
-147.6663010000000043
11
173.337223999999992
21
-147.8130040000000065
0
LINE
8
BLACK
6
CONTINUOUS
10
173.337223999999992
20
-147.8130040000000065
11
173.1025879999999972
21
-147.9259989999999902
0
LINE
8
BLACK
6
CONTINUOUS
10
173.1025879999999972
20
-147.9259989999999902
11
172.853730999999982
21
-148.0027609999999925
0
LINE
8
BLACK
6
CONTINUOUS
10
172.853730999999982
20
-148.0027609999999925
11
172.5962130000000059
21
-148.0415759999999921
0
LINE
8
BLACK
6
CONTINUOUS
10
172.5962130000000059
20
-148.0415759999999921
11
172.3357869999999821
21
-148.0415759999999921
0
LINE
8
BLACK
6
CONTINUOUS
10
172.3357869999999821
20
-148.0415759999999921
11
172.0782690000000059
21
-148.0027609999999925
0
LINE
8
BLACK
6
CONTINUOUS
10
172.0782690000000059
20
-148.0027609999999925
11
171.8294119999999907
21
-147.9259989999999902
0
LINE
8
BLACK
6
CONTINUOUS
10
171.8294119999999907
20
-147.9259989999999902
11
171.594775999999996
21
-147.8130040000000065
0
LINE
8
BLACK
6
CONTINUOUS
10
171.594775999999996
20
-147.8130040000000065
11
171.3796009999999796
21
-147.6663010000000043
0
LINE
8
BLACK
6
CONTINUOUS
10
171.3796009999999796
20
-147.6663010000000043
11
171.1886949999999956
21
-147.4891659999999831
0
LINE
8
BLACK
6
CONTINUOUS
10
171.1886949999999956
20
-147.4891659999999831
11
171.0263219999999933
21
-147.2855559999999855
0
LINE
8
BLACK
6
CONTINUOUS
10
171.0263219999999933
20
-147.2855559999999855
11
170.8961089999999956
21
-147.0600199999999802
0
LINE
8
BLACK
6
CONTINUOUS
10
170.8961089999999956
20
-147.0600199999999802
11
170.8009639999999933
21
-146.8175959999999804
0
LINE
8
BLACK
6
CONTINUOUS
10
170.8009639999999933
20
-146.8175959999999804
11
170.7430139999999881
21
-146.563697999999988
0
LINE
8
BLACK
6
CONTINUOUS
10
170.7430139999999881
20
-146.563697999999988
11
170.7235519999999838
21
-146.304000000000002
0
LINE
8
BLACK
6
CONTINUOUS
10
170.7235519999999838
20
-146.304000000000002
11
170.7430139999999881
21
-146.0443019999999876
0
LINE
8
BLACK
6
CONTINUOUS
10
170.7430139999999881
20
-146.0443019999999876
11
170.8009639999999933
21
-145.7904039999999952
0
LINE
8
BLACK
6
CONTINUOUS
10
170.8009639999999933
20
-145.7904039999999952
11
170.8961089999999956
21
-145.5479799999999955
0
LINE
8
BLACK
6
CONTINUOUS
10
170.8961089999999956
20
-145.5479799999999955
11
171.0263219999999933
21
-145.3224439999999902
0
LINE
8
BLACK
6
CONTINUOUS
10
171.0263219999999933
20
-145.3224439999999902
11
171.1886949999999956
21
-145.1188339999999926
0
LINE
8
BLACK
6
CONTINUOUS
10
171.1886949999999956
20
-145.1188339999999926
11
171.3796009999999796
21
-144.9416989999999998
0
LINE
8
BLACK
6
CONTINUOUS
10
171.3796009999999796
20
-144.9416989999999998
11
171.594775999999996
21
-144.7949959999999976
0
LINE
8
BLACK
6
CONTINUOUS
10
171.594775999999996
20
-144.7949959999999976
11
171.8294119999999907
21
-144.6820009999999854
0
LINE
8
BLACK
6
CONTINUOUS
10
171.8294119999999907
20
-144.6820009999999854
11
172.0782690000000059
21
-144.6052389999999832
0
LINE
8
BLACK
6
CONTINUOUS
10
172.0782690000000059
20
-144.6052389999999832
11
172.3357869999999821
21
-144.5664239999999836
0
LINE
8
BLACK
6
CONTINUOUS
10
172.3357869999999821
20
-144.5664239999999836
11
172.5962130000000059
21
-144.5664239999999836
0
LINE
8
BLACK
6
CONTINUOUS
10
172.5962130000000059
20
-144.5664239999999836
11
172.853730999999982
21
-144.6052389999999832
0
LINE
8
BLACK
6
CONTINUOUS
10
170.9928209999999922
20
-146.5498299999999858
11
171.0533759999999859
21
-146.7889549999999872
0
LINE
8
BLACK
6
CONTINUOUS
10
171.0533759999999859
20
-146.7889549999999872
11
171.1524629999999831
21
-147.0148509999999931
0
LINE
8
BLACK
6
CONTINUOUS
10
171.1524629999999831
20
-147.0148509999999931
11
171.2873799999999846
21
-147.2213569999999834
0
LINE
8
BLACK
6
CONTINUOUS
10
171.2873799999999846
20
-147.2213569999999834
11
171.4544469999999876
21
-147.4028399999999976
0
LINE
8
BLACK
6
CONTINUOUS
10
171.4544469999999876
20
-147.4028399999999976
11
171.6491059999999891
21
-147.554349000000002
0
LINE
8
BLACK
6
CONTINUOUS
10
171.6491059999999891
20
-147.554349000000002
11
171.8660480000000064
21
-147.6717519999999979
0
LINE
8
BLACK
6
CONTINUOUS
10
171.8660480000000064
20
-147.6717519999999979
11
172.0993550000000027
21
-147.7518469999999979
0
LINE
8
BLACK
6
CONTINUOUS
10
172.0993550000000027
20
-147.7518469999999979
11
172.342663999999985
21
-147.7924480000000074
0
LINE
8
BLACK
6
CONTINUOUS
10
172.342663999999985
20
-147.7924480000000074
11
172.589336000000003
21
-147.7924480000000074
0
LINE
8
BLACK
6
CONTINUOUS
10
172.589336000000003
20
-147.7924480000000074
11
172.8326449999999852
21
-147.7518469999999979
0
LINE
8
BLACK
6
CONTINUOUS
10
172.8326449999999852
20
-147.7518469999999979
11
173.0659519999999816
21
-147.6717519999999979
0
LINE
8
BLACK
6
CONTINUOUS
10
173.0659519999999816
20
-147.6717519999999979
11
173.2828939999999989
21
-147.554349000000002
0
LINE
8
BLACK
6
CONTINUOUS
10
173.2828939999999989
20
-147.554349000000002
11
173.4775530000000003
21
-147.4028399999999976
0
LINE
8
BLACK
6
CONTINUOUS
10
173.4775530000000003
20
-147.4028399999999976
11
173.6446200000000033
21
-147.2213569999999834
0
LINE
8
BLACK
6
CONTINUOUS
10
173.6446200000000033
20
-147.2213569999999834
11
173.7795370000000048
21
-147.0148509999999931
0
LINE
8
BLACK
6
CONTINUOUS
10
173.7795370000000048
20
-147.0148509999999931
11
173.8786240000000021
21
-146.7889549999999872
0
LINE
8
BLACK
6
CONTINUOUS
10
173.8786240000000021
20
-146.7889549999999872
11
173.9391789999999958
21
-146.5498299999999858
0
LINE
8
BLACK
6
CONTINUOUS
10
173.9391789999999958
20
-146.5498299999999858
11
173.9595489999999813
21
-146.304000000000002
0
LINE
8
BLACK
6
CONTINUOUS
10
173.9595489999999813
20
-146.304000000000002
11
173.9391789999999958
21
-146.0581699999999898
0
LINE
8
BLACK
6
CONTINUOUS
10
173.9391789999999958
20
-146.0581699999999898
11
173.8786240000000021
21
-145.8190449999999885
0
LINE
8
BLACK
6
CONTINUOUS
10
173.8786240000000021
20
-145.8190449999999885
11
173.7795370000000048
21
-145.5931489999999826
0
LINE
8
BLACK
6
CONTINUOUS
10
173.7795370000000048
20
-145.5931489999999826
11
173.6446200000000033
21
-145.3866429999999923
0
LINE
8
BLACK
6
CONTINUOUS
10
173.6446200000000033
20
-145.3866429999999923
11
173.4775530000000003
21
-145.2051600000000064
0
LINE
8
BLACK
6
CONTINUOUS
10
173.4775530000000003
20
-145.2051600000000064
11
173.2828939999999989
21
-145.0536510000000021
0
LINE
8
BLACK
6
CONTINUOUS
10
173.2828939999999989
20
-145.0536510000000021
11
173.0659519999999816
21
-144.9362480000000062
0
LINE
8
BLACK
6
CONTINUOUS
10
173.0659519999999816
20
-144.9362480000000062
11
172.8326449999999852
21
-144.8561530000000062
0
LINE
8
BLACK
6
CONTINUOUS
10
172.8326449999999852
20
-144.8561530000000062
11
172.589336000000003
21
-144.8155519999999967
0
LINE
8
BLACK
6
CONTINUOUS
10
172.589336000000003
20
-144.8155519999999967
11
172.342663999999985
21
-144.8155519999999967
0
LINE
8
BLACK
6
CONTINUOUS
10
172.342663999999985
20
-144.8155519999999967
11
172.0993550000000027
21
-144.8561530000000062
0
LINE
8
BLACK
6
CONTINUOUS
10
172.0993550000000027
20
-144.8561530000000062
11
171.8660480000000064
21
-144.9362480000000062
0
LINE
8
BLACK
6
CONTINUOUS
10
171.8660480000000064
20
-144.9362480000000062
11
171.6491059999999891
21
-145.0536510000000021
0
LINE
8
BLACK
6
CONTINUOUS
10
171.6491059999999891
20
-145.0536510000000021
11
171.4544469999999876
21
-145.2051600000000064
0
LINE
8
BLACK
6
CONTINUOUS
10
171.4544469999999876
20
-145.2051600000000064
11
171.2873799999999846
21
-145.3866429999999923
0
LINE
8
BLACK
6
CONTINUOUS
10
171.2873799999999846
20
-145.3866429999999923
11
171.1524629999999831
21
-145.5931489999999826
0
LINE
8
BLACK
6
CONTINUOUS
10
171.1524629999999831
20
-145.5931489999999826
11
171.0533759999999859
21
-145.8190449999999885
0
LINE
8
BLACK
6
CONTINUOUS
10
171.0533759999999859
20
-145.8190449999999885
11
170.9928209999999922
21
-146.0581699999999898
0
LINE
8
BLACK
6
CONTINUOUS
10
170.9928209999999922
20
-146.0581699999999898
11
170.9724509999999782
21
-146.304000000000002
0
LINE
8
BLACK
6
CONTINUOUS
10
170.9724509999999782
20
-146.304000000000002
11
170.9928209999999922
21
-146.5498299999999858
0
LINE
8
BLACK
6
CONTINUOUS
10
172.8517259999999851
20
-72.9860240000000005
11
173.0992959999999812
21
-73.062388999999996
0
LINE
8
BLACK
6
CONTINUOUS
10
173.0992959999999812
20
-73.062388999999996
11
173.3327189999999973
21
-73.1747999999999905
0
LINE
8
BLACK
6
CONTINUOUS
10
173.3327189999999973
20
-73.1747999999999905
11
173.5467799999999841
21
-73.3207439999999906
0
LINE
8
BLACK
6
CONTINUOUS
10
173.5467799999999841
20
-73.3207439999999906
11
173.7366989999999873
21
-73.4969629999999938
0
LINE
8
BLACK
6
CONTINUOUS
10
173.7366989999999873
20
-73.4969629999999938
11
173.8982330000000047
21
-73.6995199999999926
0
LINE
8
BLACK
6
CONTINUOUS
10
173.8982330000000047
20
-73.6995199999999926
11
174.0277729999999963
21
-73.9238900000000001
0
LINE
8
BLACK
6
CONTINUOUS
10
174.0277729999999963
20
-73.9238900000000001
11
174.1224249999999927
21
-74.1650599999999969
0
LINE
8
BLACK
6
CONTINUOUS
10
174.1224249999999927
20
-74.1650599999999969
11
174.1800759999999855
21
-74.4176449999999932
0
LINE
8
BLACK
6
CONTINUOUS
10
174.1800759999999855
20
-74.4176449999999932
11
174.199436999999989
21
-74.6760000000000019
0
LINE
8
BLACK
6
CONTINUOUS
10
174.199436999999989
20
-74.6760000000000019
11
174.1800759999999855
21
-74.9343549999999965
0
LINE
8
BLACK
6
CONTINUOUS
10
174.1800759999999855
20
-74.9343549999999965
11
174.1224249999999927
21
-75.1869399999999928
0
LINE
8
BLACK
6
CONTINUOUS
10
174.1224249999999927
20
-75.1869399999999928
11
174.0277729999999963
21
-75.4281099999999896
0
LINE
8
BLACK
6
CONTINUOUS
10
174.0277729999999963
20
-75.4281099999999896
11
173.8982330000000047
21
-75.6524799999999971
0
LINE
8
BLACK
6
CONTINUOUS
10
173.8982330000000047
20
-75.6524799999999971
11
173.7366989999999873
21
-75.8550369999999958
0
LINE
8
BLACK
6
CONTINUOUS
10
173.7366989999999873
20
-75.8550369999999958
11
173.5467799999999841
21
-76.0312559999999991
0
LINE
8
BLACK
6
CONTINUOUS
10
173.5467799999999841
20
-76.0312559999999991
11
173.3327189999999973
21
-76.1771999999999991
0
LINE
8
BLACK
6
CONTINUOUS
10
173.3327189999999973
20
-76.1771999999999991
11
173.0992959999999812
21
-76.2896109999999936
0
LINE
8
BLACK
6
CONTINUOUS
10
173.0992959999999812
20
-76.2896109999999936
11
172.8517259999999851
21
-76.3659760000000034
0
LINE
8
BLACK
6
CONTINUOUS
10
172.8517259999999851
20
-76.3659760000000034
11
172.5955399999999997
21
-76.4045899999999989
0
LINE
8
BLACK
6
CONTINUOUS
10
172.5955399999999997
20
-76.4045899999999989
11
172.3364599999999882
21
-76.4045899999999989
0
LINE
8
BLACK
6
CONTINUOUS
10
172.3364599999999882
20
-76.4045899999999989
11
172.0802740000000028
21
-76.3659760000000034
0
LINE
8
BLACK
6
CONTINUOUS
10
172.0802740000000028
20
-76.3659760000000034
11
171.8327039999999784
21
-76.2896109999999936
0
LINE
8
BLACK
6
CONTINUOUS
10
171.8327039999999784
20
-76.2896109999999936
11
171.5992819999999881
21
-76.1771999999999991
0
LINE
8
BLACK
6
CONTINUOUS
10
171.5992819999999881
20
-76.1771999999999991
11
171.3852200000000039
21
-76.0312559999999991
0
LINE
8
BLACK
6
CONTINUOUS
10
171.3852200000000039
20
-76.0312559999999991
11
171.1953010000000006
21
-75.8550369999999958
0
LINE
8
BLACK
6
CONTINUOUS
10
171.1953010000000006
20
-75.8550369999999958
11
171.0337669999999832
21
-75.6524799999999971
0
LINE
8
BLACK
6
CONTINUOUS
10
171.0337669999999832
20
-75.6524799999999971
11
170.9042269999999917
21
-75.4281099999999896
0
LINE
8
BLACK
6
CONTINUOUS
10
170.9042269999999917
20
-75.4281099999999896
11
170.8095749999999953
21
-75.1869399999999928
0
LINE
8
BLACK
6
CONTINUOUS
10
170.8095749999999953
20
-75.1869399999999928
11
170.7519240000000025
21
-74.9343549999999965
0
LINE
8
BLACK
6
CONTINUOUS
10
170.7519240000000025
20
-74.9343549999999965
11
170.732562999999999
21
-74.6760000000000019
0
LINE
8
BLACK
6
CONTINUOUS
10
170.732562999999999
20
-74.6760000000000019
11
170.7519240000000025
21
-74.4176449999999932
0
LINE
8
BLACK
6
CONTINUOUS
10
170.7519240000000025
20
-74.4176449999999932
11
170.8095749999999953
21
-74.1650599999999969
0
LINE
8
BLACK
6
CONTINUOUS
10
170.8095749999999953
20
-74.1650599999999969
11
170.9042269999999917
21
-73.9238900000000001
0
LINE
8
BLACK
6
CONTINUOUS
10
170.9042269999999917
20
-73.9238900000000001
11
171.0337669999999832
21
-73.6995199999999926
0
LINE
8
BLACK
6
CONTINUOUS
10
171.0337669999999832
20
-73.6995199999999926
11
171.1953010000000006
21
-73.4969629999999938
0
LINE
8
BLACK
6
CONTINUOUS
10
171.1953010000000006
20
-73.4969629999999938
11
171.3852200000000039
21
-73.3207439999999906
0
LINE
8
BLACK
6
CONTINUOUS
10
171.3852200000000039
20
-73.3207439999999906
11
171.5992819999999881
21
-73.1747999999999905
0
LINE
8
BLACK
6
CONTINUOUS
10
171.5992819999999881
20
-73.1747999999999905
11
171.8327039999999784
21
-73.062388999999996
0
LINE
8
BLACK
6
CONTINUOUS
10
171.8327039999999784
20
-73.062388999999996
11
172.0802740000000028
21
-72.9860240000000005
0
LINE
8
BLACK
6
CONTINUOUS
10
172.0802740000000028
20
-72.9860240000000005
11
172.3364599999999882
21
-72.9474099999999908
0
LINE
8
BLACK
6
CONTINUOUS
10
172.3364599999999882
20
-72.9474099999999908
11
172.5955399999999997
21
-72.9474099999999908
0
LINE
8
BLACK
6
CONTINUOUS
10
172.5955399999999997
20
-72.9474099999999908
11
172.8517259999999851
21
-72.9860240000000005
0
LINE
8
BLACK
6
CONTINUOUS
10
171.0017399999999839
20
-74.9203419999999909
11
171.0619279999999947
21
-75.1580189999999959
0
LINE
8
BLACK
6
CONTINUOUS
10
171.0619279999999947
20
-75.1580189999999959
11
171.1604150000000004
21
-75.3825470000000024
0
LINE
8
BLACK
6
CONTINUOUS
10
171.1604150000000004
20
-75.3825470000000024
11
171.2945149999999899
21
-75.5878029999999939
0
LINE
8
BLACK
6
CONTINUOUS
10
171.2945149999999899
20
-75.5878029999999939
11
171.4605709999999874
21
-75.7681869999999975
0
LINE
8
BLACK
6
CONTINUOUS
10
171.4605709999999874
20
-75.7681869999999975
11
171.6540519999999788
21
-75.9187790000000007
0
LINE
8
BLACK
6
CONTINUOUS
10
171.6540519999999788
20
-75.9187790000000007
11
171.8696799999999882
21
-76.0354719999999986
0
LINE
8
BLACK
6
CONTINUOUS
10
171.8696799999999882
20
-76.0354719999999986
11
172.1015749999999969
21
-76.1150810000000035
0
LINE
8
BLACK
6
CONTINUOUS
10
172.1015749999999969
20
-76.1150810000000035
11
172.3434100000000058
21
-76.1554369999999921
0
LINE
8
BLACK
6
CONTINUOUS
10
172.3434100000000058
20
-76.1554369999999921
11
172.5885899999999822
21
-76.1554369999999921
0
LINE
8
BLACK
6
CONTINUOUS
10
172.5885899999999822
20
-76.1554369999999921
11
172.8304249999999911
21
-76.1150810000000035
0
LINE
8
BLACK
6
CONTINUOUS
10
172.8304249999999911
20
-76.1150810000000035
11
173.0623199999999997
21
-76.0354719999999986
0
LINE
8
BLACK
6
CONTINUOUS
10
173.0623199999999997
20
-76.0354719999999986
11
173.2779479999999808
21
-75.9187790000000007
0
LINE
8
BLACK
6
CONTINUOUS
10
173.2779479999999808
20
-75.9187790000000007
11
173.4714290000000005
21
-75.7681869999999975
0
LINE
8
BLACK
6
CONTINUOUS
10
173.4714290000000005
20
-75.7681869999999975
11
173.6374849999999981
21
-75.5878029999999939
0
LINE
8
BLACK
6
CONTINUOUS
10
173.6374849999999981
20
-75.5878029999999939
11
173.7715849999999875
21
-75.3825470000000024
0
LINE
8
BLACK
6
CONTINUOUS
10
173.7715849999999875
20
-75.3825470000000024
11
173.8700719999999933
21
-75.1580189999999959
0
LINE
8
BLACK
6
CONTINUOUS
10
173.8700719999999933
20
-75.1580189999999959
11
173.9302600000000041
21
-74.9203419999999909
0
LINE
8
BLACK
6
CONTINUOUS
10
173.9302600000000041
20
-74.9203419999999909
11
173.9505069999999876
21
-74.6760000000000019
0
LINE
8
BLACK
6
CONTINUOUS
10
173.9505069999999876
20
-74.6760000000000019
11
173.9302600000000041
21
-74.4316579999999988
0
LINE
8
BLACK
6
CONTINUOUS
10
173.9302600000000041
20
-74.4316579999999988
11
173.8700719999999933
21
-74.1939809999999937
0
LINE
8
BLACK
6
CONTINUOUS
10
173.8700719999999933
20
-74.1939809999999937
11
173.7715849999999875
21
-73.9694530000000015
0
LINE
8
BLACK
6
CONTINUOUS
10
173.7715849999999875
20
-73.9694530000000015
11
173.6374849999999981
21
-73.7641969999999958
0
LINE
8
BLACK
6
CONTINUOUS
10
173.6374849999999981
20
-73.7641969999999958
11
173.4714290000000005
21
-73.5838129999999921
0
LINE
8
BLACK
6
CONTINUOUS
10
173.4714290000000005
20
-73.5838129999999921
11
173.2779479999999808
21
-73.4332210000000032
0
LINE
8
BLACK
6
CONTINUOUS
10
173.2779479999999808
20
-73.4332210000000032
11
173.0623199999999997
21
-73.316527999999991
0
LINE
8
BLACK
6
CONTINUOUS
10
173.0623199999999997
20
-73.316527999999991
11
172.8304249999999911
21
-73.2369190000000003
0
LINE
8
BLACK
6
CONTINUOUS
10
172.8304249999999911
20
-73.2369190000000003
11
172.5885899999999822
21
-73.1965629999999976
0
LINE
8
BLACK
6
CONTINUOUS
10
172.5885899999999822
20
-73.1965629999999976
11
172.3434100000000058
21
-73.1965629999999976
0
LINE
8
BLACK
6
CONTINUOUS
10
172.3434100000000058
20
-73.1965629999999976
11
172.1015749999999969
21
-73.2369190000000003
0
LINE
8
BLACK
6
CONTINUOUS
10
172.1015749999999969
20
-73.2369190000000003
11
171.8696799999999882
21
-73.316527999999991
0
LINE
8
BLACK
6
CONTINUOUS
10
171.8696799999999882
20
-73.316527999999991
11
171.6540519999999788
21
-73.4332210000000032
0
LINE
8
BLACK
6
CONTINUOUS
10
171.6540519999999788
20
-73.4332210000000032
11
171.4605709999999874
21
-73.5838129999999921
0
LINE
8
BLACK
6
CONTINUOUS
10
171.4605709999999874
20
-73.5838129999999921
11
171.2945149999999899
21
-73.7641969999999958
0
LINE
8
BLACK
6
CONTINUOUS
10
171.2945149999999899
20
-73.7641969999999958
11
171.1604150000000004
21
-73.9694530000000015
0
LINE
8
BLACK
6
CONTINUOUS
10
171.1604150000000004
20
-73.9694530000000015
11
171.0619279999999947
21
-74.1939809999999937
0
LINE
8
BLACK
6
CONTINUOUS
10
171.0619279999999947
20
-74.1939809999999937
11
171.0017399999999839
21
-74.4316579999999988
0
LINE
8
BLACK
6
CONTINUOUS
10
171.0017399999999839
20
-74.4316579999999988
11
170.9814930000000004
21
-74.6760000000000019
0
LINE
8
BLACK
6
CONTINUOUS
10
170.9814930000000004
20
-74.6760000000000019
11
171.0017399999999839
21
-74.9203419999999909
0
LINE
8
BLACK
6
CONTINUOUS
10
137.7987420000000043
20
-72.9903369999999967
11
138.0456790000000069
21
-73.0665070000000014
0
LINE
8
BLACK
6
CONTINUOUS
10
138.0456790000000069
20
-73.0665070000000014
11
138.2785069999999905
21
-73.1786309999999958
0
LINE
8
BLACK
6
CONTINUOUS
10
138.2785069999999905
20
-73.1786309999999958
11
138.4920219999999915
21
-73.3242029999999971
0
LINE
8
BLACK
6
CONTINUOUS
10
138.4920219999999915
20
-73.3242029999999971
11
138.6814559999999972
21
-73.4999719999999996
0
LINE
8
BLACK
6
CONTINUOUS
10
138.6814559999999972
20
-73.4999719999999996
11
138.8425780000000032
21
-73.7020119999999963
0
LINE
8
BLACK
6
CONTINUOUS
10
138.8425780000000032
20
-73.7020119999999963
11
138.9717870000000062
21
-73.925809000000001
0
LINE
8
BLACK
6
CONTINUOUS
10
138.9717870000000062
20
-73.925809000000001
11
139.0661979999999858
21
-74.1663640000000015
0
LINE
8
BLACK
6
CONTINUOUS
10
139.0661979999999858
20
-74.1663640000000015
11
139.1237009999999827
21
-74.418303999999992
0
LINE
8
BLACK
6
CONTINUOUS
10
139.1237009999999827
20
-74.418303999999992
11
139.1430129999999963
21
-74.6760000000000019
0
LINE
8
BLACK
6
CONTINUOUS
10
139.1430129999999963
20
-74.6760000000000019
11
139.1237009999999827
21
-74.9336959999999976
0
LINE
8
BLACK
6
CONTINUOUS
10
139.1237009999999827
20
-74.9336959999999976
11
139.0661979999999858
21
-75.1856360000000024
0
LINE
8
BLACK
6
CONTINUOUS
10
139.0661979999999858
20
-75.1856360000000024
11
138.9717870000000062
21
-75.4261910000000029
0
LINE
8
BLACK
6
CONTINUOUS
10
138.9717870000000062
20
-75.4261910000000029
11
138.8425780000000032
21
-75.6499879999999933
0
LINE
8
BLACK
6
CONTINUOUS
10
138.8425780000000032
20
-75.6499879999999933
11
138.6814559999999972
21
-75.85202799999999
0
LINE
8
BLACK
6
CONTINUOUS
10
138.6814559999999972
20
-75.85202799999999
11
138.4920219999999915
21
-76.0277969999999925
0
LINE
8
BLACK
6
CONTINUOUS
10
138.4920219999999915
20
-76.0277969999999925
11
138.2785069999999905
21
-76.1733689999999939
0
LINE
8
BLACK
6
CONTINUOUS
10
138.2785069999999905
20
-76.1733689999999939
11
138.0456790000000069
21
-76.2854930000000024
0
LINE
8
BLACK
6
CONTINUOUS
10
138.0456790000000069
20
-76.2854930000000024
11
137.7987420000000043
21
-76.361662999999993
0
LINE
8
BLACK
6
CONTINUOUS
10
137.7987420000000043
20
-76.361662999999993
11
137.5432089999999903
21
-76.4001779999999968
0
LINE
8
BLACK
6
CONTINUOUS
10
137.5432089999999903
20
-76.4001779999999968
11
137.2847909999999843
21
-76.4001779999999968
0
LINE
8
BLACK
6
CONTINUOUS
10
137.2847909999999843
20
-76.4001779999999968
11
137.0292579999999987
21
-76.361662999999993
0
LINE
8
BLACK
6
CONTINUOUS
10
137.0292579999999987
20
-76.361662999999993
11
136.782320999999996
21
-76.2854930000000024
0
LINE
8
BLACK
6
CONTINUOUS
10
136.782320999999996
20
-76.2854930000000024
11
136.5494939999999815
21
-76.1733689999999939
0
LINE
8
BLACK
6
CONTINUOUS
10
136.5494939999999815
20
-76.1733689999999939
11
136.335977999999983
21
-76.0277969999999925
0
LINE
8
BLACK
6
CONTINUOUS
10
136.335977999999983
20
-76.0277969999999925
11
136.1465440000000058
21
-75.85202799999999
0
LINE
8
BLACK
6
CONTINUOUS
10
136.1465440000000058
20
-75.85202799999999
11
135.9854219999999998
21
-75.6499879999999933
0
LINE
8
BLACK
6
CONTINUOUS
10
135.9854219999999998
20
-75.6499879999999933
11
135.8562129999999968
21
-75.4261910000000029
0
LINE
8
BLACK
6
CONTINUOUS
10
135.8562129999999968
20
-75.4261910000000029
11
135.7618019999999888
21
-75.1856360000000024
0
LINE
8
BLACK
6
CONTINUOUS
10
135.7618019999999888
20
-75.1856360000000024
11
135.7042989999999918
21
-74.9336959999999976
0
LINE
8
BLACK
6
CONTINUOUS
10
135.7042989999999918
20
-74.9336959999999976
11
135.6849870000000067
21
-74.6760000000000019
0
LINE
8
BLACK
6
CONTINUOUS
10
135.6849870000000067
20
-74.6760000000000019
11
135.7042989999999918
21
-74.418303999999992
0
LINE
8
BLACK
6
CONTINUOUS
10
135.7042989999999918
20
-74.418303999999992
11
135.7618019999999888
21
-74.1663640000000015
0
LINE
8
BLACK
6
CONTINUOUS
10
135.7618019999999888
20
-74.1663640000000015
11
135.8562129999999968
21
-73.925809000000001
0
LINE
8
BLACK
6
CONTINUOUS
10
135.8562129999999968
20
-73.925809000000001
11
135.9854219999999998
21
-73.7020119999999963
0
LINE
8
BLACK
6
CONTINUOUS
10
135.9854219999999998
20
-73.7020119999999963
11
136.1465440000000058
21
-73.4999719999999996
0
LINE
8
BLACK
6
CONTINUOUS
10
136.1465440000000058
20
-73.4999719999999996
11
136.335977999999983
21
-73.3242029999999971
0
LINE
8
BLACK
6
CONTINUOUS
10
136.335977999999983
20
-73.3242029999999971
11
136.5494939999999815
21
-73.1786309999999958
0
LINE
8
BLACK
6
CONTINUOUS
10
136.5494939999999815
20
-73.1786309999999958
11
136.782320999999996
21
-73.0665070000000014
0
LINE
8
BLACK
6
CONTINUOUS
10
136.782320999999996
20
-73.0665070000000014
11
137.0292579999999987
21
-72.9903369999999967
0
LINE
8
BLACK
6
CONTINUOUS
10
137.0292579999999987
20
-72.9903369999999967
11
137.2847909999999843
21
-72.9518219999999928
0
LINE
8
BLACK
6
CONTINUOUS
10
137.2847909999999843
20
-72.9518219999999928
11
137.5432089999999903
21
-72.9518219999999928
0
LINE
8
BLACK
6
CONTINUOUS
10
137.5432089999999903
20
-72.9518219999999928
11
137.7987420000000043
21
-72.9903369999999967
0
LINE
8
BLACK
6
CONTINUOUS
10
135.954117999999994
20
-74.9196110000000033
11
136.0141260000000045
21
-75.1565769999999986
0
LINE
8
BLACK
6
CONTINUOUS
10
136.0141260000000045
20
-75.1565769999999986
11
136.1123189999999852
21
-75.3804349999999914
0
LINE
8
BLACK
6
CONTINUOUS
10
136.1123189999999852
20
-75.3804349999999914
11
136.2460179999999923
21
-75.5850769999999983
0
LINE
8
BLACK
6
CONTINUOUS
10
136.2460179999999923
20
-75.5850769999999983
11
136.4115769999999941
21
-75.7649210000000011
0
LINE
8
BLACK
6
CONTINUOUS
10
136.4115769999999941
20
-75.7649210000000011
11
136.6044799999999952
21
-75.9150630000000035
0
LINE
8
BLACK
6
CONTINUOUS
10
136.6044799999999952
20
-75.9150630000000035
11
136.8194629999999847
21
-76.0314070000000015
0
LINE
8
BLACK
6
CONTINUOUS
10
136.8194629999999847
20
-76.0314070000000015
11
137.0506649999999809
21
-76.1107779999999963
0
LINE
8
BLACK
6
CONTINUOUS
10
137.0506649999999809
20
-76.1107779999999963
11
137.2917769999999962
21
-76.1510129999999918
0
LINE
8
BLACK
6
CONTINUOUS
10
137.2917769999999962
20
-76.1510129999999918
11
137.5362230000000068
21
-76.1510129999999918
0
LINE
8
BLACK
6
CONTINUOUS
10
137.5362230000000068
20
-76.1510129999999918
11
137.7773349999999937
21
-76.1107779999999963
0
LINE
8
BLACK
6
CONTINUOUS
10
137.7773349999999937
20
-76.1107779999999963
11
138.0085369999999898
21
-76.0314070000000015
0
LINE
8
BLACK
6
CONTINUOUS
10
138.0085369999999898
20
-76.0314070000000015
11
138.2235200000000077
21
-75.9150630000000035
0
LINE
8
BLACK
6
CONTINUOUS
10
138.2235200000000077
20
-75.9150630000000035
11
138.4164229999999804
21
-75.7649210000000011
0
LINE
8
BLACK
6
CONTINUOUS
10
138.4164229999999804
20
-75.7649210000000011
11
138.5819819999999822
21
-75.5850769999999983
0
LINE
8
BLACK
6
CONTINUOUS
10
138.5819819999999822
20
-75.5850769999999983
11
138.7156809999999894
21
-75.3804349999999914
0
LINE
8
BLACK
6
CONTINUOUS
10
138.7156809999999894
20
-75.3804349999999914
11
138.8138739999999984
21
-75.1565769999999986
0
LINE
8
BLACK
6
CONTINUOUS
10
138.8138739999999984
20
-75.1565769999999986
11
138.8738819999999805
21
-74.9196110000000033
0
LINE
8
BLACK
6
CONTINUOUS
10
138.8738819999999805
20
-74.9196110000000033
11
138.8940680000000043
21
-74.6760000000000019
0
LINE
8
BLACK
6
CONTINUOUS
10
138.8940680000000043
20
-74.6760000000000019
11
138.8738819999999805
21
-74.4323890000000006
0
LINE
8
BLACK
6
CONTINUOUS
10
138.8738819999999805
20
-74.4323890000000006
11
138.8138739999999984
21
-74.195422999999991
0
LINE
8
BLACK
6
CONTINUOUS
10
138.8138739999999984
20
-74.195422999999991
11
138.7156809999999894
21
-73.9715649999999982
0
LINE
8
BLACK
6
CONTINUOUS
10
138.7156809999999894
20
-73.9715649999999982
11
138.5819819999999822
21
-73.7669229999999914
0
LINE
8
BLACK
6
CONTINUOUS
10
138.5819819999999822
20
-73.7669229999999914
11
138.4164229999999804
21
-73.5870790000000028
0
LINE
8
BLACK
6
CONTINUOUS
10
138.4164229999999804
20
-73.5870790000000028
11
138.2235200000000077
21
-73.4369370000000004
0
LINE
8
BLACK
6
CONTINUOUS
10
138.2235200000000077
20
-73.4369370000000004
11
138.0085369999999898
21
-73.3205930000000023
0
LINE
8
BLACK
6
CONTINUOUS
10
138.0085369999999898
20
-73.3205930000000023
11
137.7773349999999937
21
-73.2412219999999934
0
LINE
8
BLACK
6
CONTINUOUS
10
137.7773349999999937
20
-73.2412219999999934
11
137.5362230000000068
21
-73.2009869999999978
0
LINE
8
BLACK
6
CONTINUOUS
10
137.5362230000000068
20
-73.2009869999999978
11
137.2917769999999962
21
-73.2009869999999978
0
LINE
8
BLACK
6
CONTINUOUS
10
137.2917769999999962
20
-73.2009869999999978
11
137.0506649999999809
21
-73.2412219999999934
0
LINE
8
BLACK
6
CONTINUOUS
10
137.0506649999999809
20
-73.2412219999999934
11
136.8194629999999847
21
-73.3205930000000023
0
LINE
8
BLACK
6
CONTINUOUS
10
136.8194629999999847
20
-73.3205930000000023
11
136.6044799999999952
21
-73.4369370000000004
0
LINE
8
BLACK
6
CONTINUOUS
10
136.6044799999999952
20
-73.4369370000000004
11
136.4115769999999941
21
-73.5870790000000028
0
LINE
8
BLACK
6
CONTINUOUS
10
136.4115769999999941
20
-73.5870790000000028
11
136.2460179999999923
21
-73.7669229999999914
0
LINE
8
BLACK
6
CONTINUOUS
10
136.2460179999999923
20
-73.7669229999999914
11
136.1123189999999852
21
-73.9715649999999982
0
LINE
8
BLACK
6
CONTINUOUS
10
136.1123189999999852
20
-73.9715649999999982
11
136.0141260000000045
21
-74.195422999999991
0
LINE
8
BLACK
6
CONTINUOUS
10
136.0141260000000045
20
-74.195422999999991
11
135.954117999999994
21
-74.4323890000000006
0
LINE
8
BLACK
6
CONTINUOUS
10
135.954117999999994
20
-74.4323890000000006
11
135.9339319999999987
21
-74.6760000000000019
0
LINE
8
BLACK
6
CONTINUOUS
10
135.9339319999999987
20
-74.6760000000000019
11
135.954117999999994
21
-74.9196110000000033
0
LINE
8
BLACK
6
CONTINUOUS
10
156.3523299999999949
20
-65.4947179999999918
11
157.6707779999999843
21
-65.555458999999999
0
LINE
8
BLACK
6
CONTINUOUS
10
157.6707779999999843
20
-65.555458999999999
11
158.9868789999999876
21
-65.6548259999999999
0
LINE
8
BLACK
6
CONTINUOUS
10
158.9868789999999876
20
-65.6548259999999999
11
160.2995019999999897
21
-65.7927310000000034
0
LINE
8
BLACK
6
CONTINUOUS
10
160.2995019999999897
20
-65.7927310000000034
11
161.6075170000000014
21
-65.969058000000004
0
LINE
8
BLACK
6
CONTINUOUS
10
161.6075170000000014
20
-65.969058000000004
11
162.9098009999999874
21
-66.1836529999999925
0
LINE
8
BLACK
6
CONTINUOUS
10
162.9098009999999874
20
-66.1836529999999925
11
164.2052349999999876
21
-66.4363340000000022
0
LINE
8
BLACK
6
CONTINUOUS
10
164.2052349999999876
20
-66.4363340000000022
11
165.4927040000000034
21
-66.7268820000000034
0
LINE
8
BLACK
6
CONTINUOUS
10
165.4927040000000034
20
-66.7268820000000034
11
166.7711019999999849
21
-67.0550470000000018
0
LINE
8
BLACK
6
CONTINUOUS
10
166.7711019999999849
20
-67.0550470000000018
11
168.0393310000000042
21
-67.4205489999999941
0
LINE
8
BLACK
6
CONTINUOUS
10
168.0393310000000042
20
-67.4205489999999941
11
169.2963000000000022
21
-67.8230719999999963
0
LINE
8
BLACK
6
CONTINUOUS
10
169.2963000000000022
20
-67.8230719999999963
11
170.5409279999999796
21
-68.2622709999999984
0
LINE
8
BLACK
6
CONTINUOUS
10
170.5409279999999796
20
-68.2622709999999984
11
171.7721469999999897
21
-68.737766999999991
0
LINE
8
BLACK
6
CONTINUOUS
10
171.7721469999999897
20
-68.737766999999991
11
172.9888959999999827
21
-69.2491529999999926
0
LINE
8
BLACK
6
CONTINUOUS
10
172.9888959999999827
20
-69.2491529999999926
11
174.1901309999999796
21
-69.7959889999999916
0
LINE
8
BLACK
6
CONTINUOUS
10
174.1901309999999796
20
-69.7959889999999916
11
175.3748199999999997
21
-70.3778039999999976
0
LINE
8
BLACK
6
CONTINUOUS
10
175.3748199999999997
20
-70.3778039999999976
11
176.5419430000000034
21
-70.9940989999999914
0
LINE
8
BLACK
6
CONTINUOUS
10
176.5419430000000034
20
-70.9940989999999914
11
177.6904969999999935
21
-71.6443440000000038
0
LINE
8
BLACK
6
CONTINUOUS
10
177.6904969999999935
20
-71.6443440000000038
11
178.8194949999999892
21
-72.3279799999999966
0
LINE
8
BLACK
6
CONTINUOUS
10
178.8194949999999892
20
-72.3279799999999966
11
179.9279679999999928
21
-73.0444189999999907
0
LINE
8
BLACK
6
CONTINUOUS
10
179.9279679999999928
20
-73.0444189999999907
11
181.0149609999999996
21
-73.7930449999999922
0
LINE
8
BLACK
6
CONTINUOUS
10
181.0149609999999996
20
-73.7930449999999922
11
182.0795399999999802
21
-74.5732149999999905
0
LINE
8
BLACK
6
CONTINUOUS
10
182.0795399999999802
20
-74.5732149999999905
11
183.120790999999997
21
-75.3842590000000001
0
LINE
8
BLACK
6
CONTINUOUS
10
183.120790999999997
20
-75.3842590000000001
11
184.137818999999979
21
-76.2254779999999954
0
LINE
8
BLACK
6
CONTINUOUS
10
184.137818999999979
20
-76.2254779999999954
11
185.1297490000000039
21
-77.0961509999999919
0
LINE
8
BLACK
6
CONTINUOUS
10
185.1297490000000039
20
-77.0961509999999919
11
186.0957279999999798
21
-77.9955279999999931
0
LINE
8
BLACK
6
CONTINUOUS
10
186.0957279999999798
20
-77.9955279999999931
11
187.0349259999999845
21
-78.9228370000000012
0
LINE
8
BLACK
6
CONTINUOUS
10
187.0349259999999845
20
-78.9228370000000012
11
187.946536999999978
21
-79.8772799999999989
0
LINE
8
BLACK
6
CONTINUOUS
10
187.946536999999978
20
-79.8772799999999989
11
188.8297749999999837
21
-80.8580369999999959
0
LINE
8
BLACK
6
CONTINUOUS
10
188.8297749999999837
20
-80.8580369999999959
11
189.6838829999999803
21
-81.8642660000000006
0
LINE
8
BLACK
6
CONTINUOUS
10
189.6838829999999803
20
-81.8642660000000006
11
190.5081260000000043
21
-82.8950999999999993
0
LINE
8
BLACK
6
CONTINUOUS
10
190.5081260000000043
20
-82.8950999999999993
11
191.3017949999999985
21
-83.9496539999999953
0
LINE
8
BLACK
6
CONTINUOUS
10
191.3017949999999985
20
-83.9496539999999953
11
192.0642079999999794
21
-85.0270220000000023
0
LINE
8
BLACK
6
CONTINUOUS
10
192.0642079999999794
20
-85.0270220000000023
11
192.7947099999999807
21
-86.1262770000000017
0
LINE
8
BLACK
6
CONTINUOUS
10
192.7947099999999807
20
-86.1262770000000017
11
193.4926729999999964
21
-87.2464749999999896
0
LINE
8
BLACK
6
CONTINUOUS
10
193.4926729999999964
20
-87.2464749999999896
11
194.157496999999978
21
-88.386651999999998
0
LINE
8
BLACK
6
CONTINUOUS
10
194.157496999999978
20
-88.386651999999998
11
194.7886110000000031
21
-89.5458289999999977
0
LINE
8
BLACK
6
CONTINUOUS
10
194.7886110000000031
20
-89.5458289999999977
11
195.3854709999999955
21
-90.7230089999999905
0
LINE
8
BLACK
6
CONTINUOUS
10
195.3854709999999955
20
-90.7230089999999905
11
195.9475659999999948
21
-91.9171809999999994
0
LINE
8
BLACK
6
CONTINUOUS
10
195.9475659999999948
20
-91.9171809999999994
11
195.9481399999999951
21
-91.922323999999989
0
LINE
8
BLACK
6
CONTINUOUS
10
195.9481399999999951
20
-91.922323999999989
11
195.949263000000002
21
-91.9250320000000016
0
LINE
8
BLACK
6
CONTINUOUS
10
195.949263000000002
20
-91.9250320000000016
11
195.9546419999999785
21
-105.1369040000000012
0
LINE
8
BLACK
6
CONTINUOUS
10
195.9546419999999785
20
-105.1369040000000012
11
199.6105769999999779
21
-105.1282029999999992
0
LINE
8
BLACK
6
CONTINUOUS
10
199.6105769999999779
20
-105.1282029999999992
11
199.6120990000000006
21
-105.1288289999999961
0
LINE
8
BLACK
6
CONTINUOUS
10
199.6120990000000006
20
-105.1288289999999961
11
199.6143169999999998
21
-105.1285639999999972
0
LINE
8
BLACK
6
CONTINUOUS
10
199.6143169999999998
20
-105.1285639999999972
11
199.6223279999999818
21
-105.1330379999999991
0
LINE
8
BLACK
6
CONTINUOUS
10
199.6223279999999818
20
-105.1330379999999991
11
199.6240599999999858
21
-105.1337509999999895
0
LINE
8
BLACK
6
CONTINUOUS
10
199.6240599999999858
20
-105.1337509999999895
11
199.6241979999999785
21
-105.1340819999999923
0
LINE
8
BLACK
6
CONTINUOUS
10
199.6241979999999785
20
-105.1340819999999923
11
199.6245959999999968
21
-105.1343049999999977
0
LINE
8
BLACK
6
CONTINUOUS
10
199.6245959999999968
20
-105.1343049999999977
11
199.6295379999999966
21
-105.1449909999999903
0
LINE
8
BLACK
6
CONTINUOUS
10
199.6295379999999966
20
-105.1449909999999903
11
199.6295369999999991
21
-105.1449909999999903
0
LINE
8
BLACK
6
CONTINUOUS
10
199.6295369999999991
20
-105.1449909999999903
11
199.7498949999999809
21
-106.2713269999999994
0
LINE
8
BLACK
6
CONTINUOUS
10
199.7498949999999809
20
-106.2713269999999994
11
199.8418690000000026
21
-107.4003349999999983
0
LINE
8
BLACK
6
CONTINUOUS
10
199.8418690000000026
20
-107.4003349999999983
11
199.9054019999999809
21
-108.5313000000000017
0
LINE
8
BLACK
6
CONTINUOUS
10
199.9054019999999809
20
-108.5313000000000017
11
199.9404539999999884
21
-109.6635059999999982
0
LINE
8
BLACK
6
CONTINUOUS
10
199.9404539999999884
20
-109.6635059999999982
11
199.9470010000000002
21
-110.7962359999999933
0
LINE
8
BLACK
6
CONTINUOUS
10
199.9470010000000002
20
-110.7962359999999933
11
199.9250399999999956
21
-111.9287709999999976
0
LINE
8
BLACK
6
CONTINUOUS
10
199.9250399999999956
20
-111.9287709999999976
11
199.8745859999999936
21
-113.0603949999999998
0
LINE
8
BLACK
6
CONTINUOUS
10
199.8745859999999936
20
-113.0603949999999998
11
199.7956690000000037
21
-114.1903909999999911
0
LINE
8
BLACK
6
CONTINUOUS
10
199.7956690000000037
20
-114.1903909999999911
11
199.6883389999999849
21
-115.3180429999999888
0
LINE
8
BLACK
6
CONTINUOUS
10
199.6883389999999849
20
-115.3180429999999888
11
199.6883399999999824
21
-115.3180440000000004
0
LINE
8
BLACK
6
CONTINUOUS
10
199.6883399999999824
20
-115.3180440000000004
11
199.6835219999999822
21
-115.3287859999999938
0
LINE
8
BLACK
6
CONTINUOUS
10
199.6835219999999822
20
-115.3287859999999938
11
199.683037999999982
21
-115.3290629999999908
0
LINE
8
BLACK
6
CONTINUOUS
10
199.683037999999982
20
-115.3290629999999908
11
199.6828699999999799
21
-115.3294700000000006
0
LINE
8
BLACK
6
CONTINUOUS
10
199.6828699999999799
20
-115.3294700000000006
11
199.680925000000002
21
-115.3302750000000003
0
LINE
8
BLACK
6
CONTINUOUS
10
199.680925000000002
20
-115.3302750000000003
11
199.6733089999999891
21
-115.3346449999999948
0
LINE
8
BLACK
6
CONTINUOUS
10
199.6733089999999891
20
-115.3346449999999948
11
199.6709829999999783
21
-115.334393999999989
0
LINE
8
BLACK
6
CONTINUOUS
10
199.6709829999999783
20
-115.334393999999989
11
199.669399999999996
21
-115.3350499999999954
0
LINE
8
BLACK
6
CONTINUOUS
10
199.669399999999996
20
-115.3350499999999954
11
198.164449999999988
21
-115.3350499999999954
0
LINE
8
BLACK
6
CONTINUOUS
10
198.164449999999988
20
-115.3350499999999954
11
198.164449999999988
21
-123.0883999999999929
0
LINE
8
BLACK
6
CONTINUOUS
10
198.164449999999988
20
-123.0883999999999929
11
198.1635880000000043
21
-123.0904779999999903
0
LINE
8
BLACK
6
CONTINUOUS
10
198.1635880000000043
20
-123.0904779999999903
11
198.1636879999999792
21
-123.0937330000000003
0
LINE
8
BLACK
6
CONTINUOUS
10
198.1636879999999792
20
-123.0937330000000003
11
197.7720309999999984
21
-124.3665439999999904
0
LINE
8
BLACK
6
CONTINUOUS
10
197.7720309999999984
20
-124.3665439999999904
11
197.3429009999999835
21
-125.6272149999999925
0
LINE
8
BLACK
6
CONTINUOUS
10
197.3429009999999835
20
-125.6272149999999925
11
196.8766760000000033
21
-126.8746429999999918
0
LINE
8
BLACK
6
CONTINUOUS
10
196.8766760000000033
20
-126.8746429999999918
11
196.3737619999999993
21
-128.1077379999999835
0
LINE
8
BLACK
6
CONTINUOUS
10
196.3737619999999993
20
-128.1077379999999835
11
195.8345999999999947
21
-129.3254189999999824
0
LINE
8
BLACK
6
CONTINUOUS
10
195.8345999999999947
20
-129.3254189999999824
11
195.2596609999999941
21
-130.5266230000000007
0
LINE
8
BLACK
6
CONTINUOUS
10
195.2596609999999941
20
-130.5266230000000007
11
194.6494490000000042
21
-131.7102969999999971
0
LINE
8
BLACK
6
CONTINUOUS
10
194.6494490000000042
20
-131.7102969999999971
11
194.004495999999989
21
-132.8754059999999981
0
LINE
8
BLACK
6
CONTINUOUS
10
194.004495999999989
20
-132.8754059999999981
11
193.3253689999999949
21
-134.0209319999999877
0
LINE
8
BLACK
6
CONTINUOUS
10
193.3253689999999949
20
-134.0209319999999877
11
192.6126600000000053
21
-135.1458719999999971
0
LINE
8
BLACK
6
CONTINUOUS
10
192.6126600000000053
20
-135.1458719999999971
11
191.866991999999982
21
-136.2492419999999811
0
LINE
8
BLACK
6
CONTINUOUS
10
191.866991999999982
20
-136.2492419999999811
11
191.089020000000005
21
-137.3300759999999912
0
LINE
8
BLACK
6
CONTINUOUS
10
191.089020000000005
20
-137.3300759999999912
11
190.2794219999999825
21
-138.3874289999999974
0
LINE
8
BLACK
6
CONTINUOUS
10
190.2794219999999825
20
-138.3874289999999974
11
189.4389079999999979
21
-139.4203760000000045
0
LINE
8
BLACK
6
CONTINUOUS
10
189.4389079999999979
20
-139.4203760000000045
11
188.5682119999999884
21
-140.4280129999999929
0
LINE
8
BLACK
6
CONTINUOUS
10
188.5682119999999884
20
-140.4280129999999929
11
187.6680969999999888
21
-141.4094589999999982
0
LINE
8
BLACK
6
CONTINUOUS
10
187.6680969999999888
20
-141.4094589999999982
11
186.7393500000000017
21
-142.3638559999999984
0
LINE
8
BLACK
6
CONTINUOUS
10
186.7393500000000017
20
-142.3638559999999984
11
185.7827819999999974
21
-143.2903670000000034
0
LINE
8
BLACK
6
CONTINUOUS
10
185.7827819999999974
20
-143.2903670000000034
11
184.7992329999999868
21
-144.1881829999999809
0
LINE
8
BLACK
6
CONTINUOUS
10
184.7992329999999868
20
-144.1881829999999809
11
183.7895599999999945
21
-145.0565179999999827
0
LINE
8
BLACK
6
CONTINUOUS
10
183.7895599999999945
20
-145.0565179999999827
11
182.7546490000000006
21
-145.8946129999999926
0
LINE
8
BLACK
6
CONTINUOUS
10
182.7546490000000006
20
-145.8946129999999926
11
181.6954039999999964
21
-146.7017339999999876
0
LINE
8
BLACK
6
CONTINUOUS
10
181.6954039999999964
20
-146.7017339999999876
11
180.6127520000000004
21
-147.4771749999999884
0
LINE
8
BLACK
6
CONTINUOUS
10
180.6127520000000004
20
-147.4771749999999884
11
179.5076409999999782
21
-148.2202580000000012
0
LINE
8
BLACK
6
CONTINUOUS
10
179.5076409999999782
20
-148.2202580000000012
11
178.3810359999999946
21
-148.9303319999999928
0
LINE
8
BLACK
6
CONTINUOUS
10
178.3810359999999946
20
-148.9303319999999928
11
177.2339240000000018
21
-149.6067769999999939
0
LINE
8
BLACK
6
CONTINUOUS
10
177.2339240000000018
20
-149.6067769999999939
11
176.067307999999997
21
-150.2490009999999927
0
LINE
8
BLACK
6
CONTINUOUS
10
176.067307999999997
20
-150.2490009999999927
11
174.8822089999999889
21
-150.8564409999999896
0
LINE
8
BLACK
6
CONTINUOUS
10
174.8822089999999889
20
-150.8564409999999896
11
173.6796640000000025
21
-151.4285679999999843
0
LINE
8
BLACK
6
CONTINUOUS
10
173.6796640000000025
20
-151.4285679999999843
11
172.460723999999999
21
-151.9648779999999988
0
LINE
8
BLACK
6
CONTINUOUS
10
172.460723999999999
20
-151.9648779999999988
11
171.2264559999999847
21
-152.4649049999999875
0
LINE
8
BLACK
6
CONTINUOUS
10
171.2264559999999847
20
-152.4649049999999875
11
169.9779399999999896
21
-152.9282100000000071
0
LINE
8
BLACK
6
CONTINUOUS
10
169.9779399999999896
20
-152.9282100000000071
11
168.7162679999999852
21
-153.3543880000000001
0
LINE
8
BLACK
6
CONTINUOUS
10
168.7162679999999852
20
-153.3543880000000001
11
167.4425439999999981
21
-153.7430659999999989
0
LINE
8
BLACK
6
CONTINUOUS
10
167.4425439999999981
20
-153.7430659999999989
11
166.1578820000000007
21
-154.0939039999999807
0
LINE
8
BLACK
6
CONTINUOUS
10
166.1578820000000007
20
-154.0939039999999807
11
164.8634059999999977
21
-154.4065949999999816
0
LINE
8
BLACK
6
CONTINUOUS
10
164.8634059999999977
20
-154.4065949999999816
11
163.5602480000000014
21
-154.6808659999999804
0
LINE
8
BLACK
6
CONTINUOUS
10
163.5602480000000014
20
-154.6808659999999804
11
162.2495490000000018
21
-154.9164759999999887
0
LINE
8
BLACK
6
CONTINUOUS
10
162.2495490000000018
20
-154.9164759999999887
11
160.9324550000000045
21
-155.1132199999999841
0
LINE
8
BLACK
6
CONTINUOUS
10
160.9324550000000045
20
-155.1132199999999841
11
159.6101189999999974
21
-155.2709260000000029
0
LINE
8
BLACK
6
CONTINUOUS
10
159.6101189999999974
20
-155.2709260000000029
11
158.2836969999999894
21
-155.3894540000000006
0
LINE
8
BLACK
6
CONTINUOUS
10
158.2836969999999894
20
-155.3894540000000006
11
156.9543500000000051
21
-155.468703000000005
0
LINE
8
BLACK
6
CONTINUOUS
10
156.9543500000000051
20
-155.468703000000005
11
155.6232409999999788
21
-155.5086019999999962
0
LINE
8
BLACK
6
CONTINUOUS
10
155.6232409999999788
20
-155.5086019999999962
11
154.2915339999999844
21
-155.5091160000000059
0
LINE
8
BLACK
6
CONTINUOUS
10
154.2915339999999844
20
-155.5091160000000059
11
152.9603939999999795
21
-155.4702450000000056
0
LINE
8
BLACK
6
CONTINUOUS
10
152.9603939999999795
20
-155.4702450000000056
11
151.6309860000000072
21
-155.3920239999999922
0
LINE
8
BLACK
6
CONTINUOUS
10
151.6309860000000072
20
-155.3920239999999922
11
150.304473999999999
21
-155.2745199999999954
0
LINE
8
BLACK
6
CONTINUOUS
10
150.304473999999999
20
-155.2745199999999954
11
148.9820159999999873
21
-155.1178359999999827
0
LINE
8
BLACK
6
CONTINUOUS
10
148.9820159999999873
20
-155.1178359999999827
11
147.6647710000000018
21
-154.9221090000000061
0
LINE
8
BLACK
6
CONTINUOUS
10
147.6647710000000018
20
-154.9221090000000061
11
146.3538900000000069
21
-154.6875119999999981
0
LINE
8
BLACK
6
CONTINUOUS
10
146.3538900000000069
20
-154.6875119999999981
11
145.0505210000000034
21
-154.4142469999999889
0
LINE
8
BLACK
6
CONTINUOUS
10
145.0505210000000034
20
-154.4142469999999889
11
143.7558039999999835
21
-154.1025559999999928
0
LINE
8
BLACK
6
CONTINUOUS
10
143.7558039999999835
20
-154.1025559999999928
11
142.4708709999999883
21
-153.752711000000005
0
LINE
8
BLACK
6
CONTINUOUS
10
142.4708709999999883
20
-153.752711000000005
11
141.1968469999999911
21
-153.3650169999999946
0
LINE
8
BLACK
6
CONTINUOUS
10
141.1968469999999911
20
-153.3650169999999946
11
139.9348459999999932
21
-152.9398139999999842
0
LINE
8
BLACK
6
CONTINUOUS
10
139.9348459999999932
20
-152.9398139999999842
11
138.68597299999999
21
-152.4774730000000034
0
LINE
8
BLACK
6
CONTINUOUS
10
138.68597299999999
20
-152.4774730000000034
11
137.4513189999999838
21
-151.9783999999999935
0
LINE
8
BLACK
6
CONTINUOUS
10
137.4513189999999838
20
-151.9783999999999935
11
136.2319650000000024
21
-151.4430309999999906
0
LINE
8
BLACK
6
CONTINUOUS
10
136.2319650000000024
20
-151.4430309999999906
11
135.0289779999999951
21
-150.8718340000000069
0
LINE
8
BLACK
6
CONTINUOUS
10
135.0289779999999951
20
-150.8718340000000069
11
133.8434100000000058
21
-150.265309000000002
0
LINE
8
BLACK
6
CONTINUOUS
10
133.8434100000000058
20
-150.265309000000002
11
132.6762990000000002
21
-149.6239869999999996
0
LINE
8
BLACK
6
CONTINUOUS
10
132.6762990000000002
20
-149.6239869999999996
11
131.528663999999992
21
-148.9484280000000069
0
LINE
8
BLACK
6
CONTINUOUS
10
131.528663999999992
20
-148.9484280000000069
11
130.4015119999999968
21
-148.2392240000000072
0
LINE
8
BLACK
6
CONTINUOUS
10
130.4015119999999968
20
-148.2392240000000072
11
129.2958260000000053
21
-147.4969949999999983
0
LINE
8
BLACK
6
CONTINUOUS
10
129.2958260000000053
20
-147.4969949999999983
11
128.2125759999999843
21
-146.7223899999999901
0
LINE
8
BLACK
6
CONTINUOUS
10
128.2125759999999843
20
-146.7223899999999901
11
127.1527079999999899
21
-145.916088000000002
0
LINE
8
BLACK
6
CONTINUOUS
10
127.1527079999999899
20
-145.916088000000002
11
126.1171489999999977
21
-145.0787929999999903
0
LINE
8
BLACK
6
CONTINUOUS
10
126.1171489999999977
20
-145.0787929999999903
11
125.1068069999999892
21
-144.2112379999999803
0
LINE
8
BLACK
6
CONTINUOUS
10
125.1068069999999892
20
-144.2112379999999803
11
124.122563999999997
21
-143.3141819999999882
0
LINE
8
BLACK
6
CONTINUOUS
10
124.122563999999997
20
-143.3141819999999882
11
123.1652809999999931
21
-142.3884099999999933
0
LINE
8
BLACK
6
CONTINUOUS
10
123.1652809999999931
20
-142.3884099999999933
11
122.2357969999999909
21
-141.4347309999999993
0
LINE
8
BLACK
6
CONTINUOUS
10
122.2357969999999909
20
-141.4347309999999993
11
121.3349240000000009
21
-140.4539809999999989
0
LINE
8
BLACK
6
CONTINUOUS
10
121.3349240000000009
20
-140.4539809999999989
11
120.4634499999999946
21
-139.4470159999999908
0
LINE
8
BLACK
6
CONTINUOUS
10
120.4634499999999946
20
-139.4470159999999908
11
119.6221379999999925
21
-138.414718999999991
0
LINE
8
BLACK
6
CONTINUOUS
10
119.6221379999999925
20
-138.414718999999991
11
118.8117239999999981
21
-137.3579909999999984
0
LINE
8
BLACK
6
CONTINUOUS
10
118.8117239999999981
20
-137.3579909999999984
11
118.0329160000000002
21
-136.2777590000000032
0
LINE
8
BLACK
6
CONTINUOUS
10
118.0329160000000002
20
-136.2777590000000032
11
117.2863969999999938
21
-135.174964999999986
0
LINE
8
BLACK
6
CONTINUOUS
10
117.2863969999999938
20
-135.174964999999986
11
116.5728189999999955
21
-134.0505760000000066
0
LINE
8
BLACK
6
CONTINUOUS
10
116.5728189999999955
20
-134.0505760000000066
11
115.8928069999999906
21
-132.9055749999999989
0
LINE
8
BLACK
6
CONTINUOUS
10
115.8928069999999906
20
-132.9055749999999989
11
115.2469549999999998
21
-131.7409639999999911
0
LINE
8
BLACK
6
CONTINUOUS
10
115.2469549999999998
20
-131.7409639999999911
11
114.6358279999999894
21
-130.5577619999999968
0
LINE
8
BLACK
6
CONTINUOUS
10
114.6358279999999894
20
-130.5577619999999968
11
114.0599619999999987
21
-129.3570029999999917
0
LINE
8
BLACK
6
CONTINUOUS
10
114.0599619999999987
20
-129.3570029999999917
11
113.5198589999999967
21
-128.1397379999999941
0
LINE
8
BLACK
6
CONTINUOUS
10
113.5198589999999967
20
-128.1397379999999941
11
113.0159929999999946
21
-126.9070329999999984
0
LINE
8
BLACK
6
CONTINUOUS
10
113.0159929999999946
20
-126.9070329999999984
11
112.5488039999999899
21
-125.6599649999999997
0
LINE
8
BLACK
6
CONTINUOUS
10
112.5488039999999899
20
-125.6599649999999997
11
112.1187010000000015
21
-124.3996259999999978
0
LINE
8
BLACK
6
CONTINUOUS
10
112.1187010000000015
20
-124.3996259999999978
11
111.7260599999999897
21
-123.1271169999999984
0
LINE
8
BLACK
6
CONTINUOUS
10
111.7260599999999897
20
-123.1271169999999984
11
111.3712249999999955
21
-121.8435539999999975
0
LINE
8
BLACK
6
CONTINUOUS
10
111.3712249999999955
20
-121.8435539999999975
11
111.0545059999999893
21
-120.5500569999999954
0
LINE
8
BLACK
6
CONTINUOUS
10
111.0545059999999893
20
-120.5500569999999954
11
110.776180999999994
21
-119.2477599999999995
0
LINE
8
BLACK
6
CONTINUOUS
10
110.776180999999994
20
-119.2477599999999995
11
110.5364909999999981
21
-117.9378009999999932
0
LINE
8
BLACK
6
CONTINUOUS
10
110.5364909999999981
20
-117.9378009999999932
11
110.3356489999999894
21
-116.6213259999999963
0
LINE
8
BLACK
6
CONTINUOUS
10
110.3356489999999894
20
-116.6213259999999963
11
110.1738280000000003
21
-115.2994869999999992
0
LINE
8
BLACK
6
CONTINUOUS
10
110.1738280000000003
20
-115.2994869999999992
11
110.0511709999999965
21
-113.9734399999999965
0
LINE
8
BLACK
6
CONTINUOUS
10
110.0511709999999965
20
-113.9734399999999965
11
109.9677849999999921
21
-112.6443469999999962
0
LINE
8
BLACK
6
CONTINUOUS
10
109.9677849999999921
20
-112.6443469999999962
11
109.9237430000000018
21
-111.313367999999997
0
LINE
8
BLACK
6
CONTINUOUS
10
109.9237430000000018
20
-111.313367999999997
11
109.919083999999998
21
-109.9818909999999903
0
LINE
8
BLACK
6
CONTINUOUS
10
109.919083999999998
20
-109.9818909999999903
11
109.9190819999999889
21
-109.9818849999999912
0
LINE
8
BLACK
6
CONTINUOUS
10
109.9190819999999889
20
-109.9818849999999912
11
109.919083999999998
21
-109.9818779999999947
0
LINE
8
BLACK
6
CONTINUOUS
10
109.919083999999998
20
-109.9818779999999947
11
109.919083999999998
21
-109.9816689999999966
0
LINE
8
BLACK
6
CONTINUOUS
10
109.919083999999998
20
-109.9816689999999966
11
109.9190830000000005
21
-109.9816689999999966
0
LINE
8
BLACK
6
CONTINUOUS
10
109.9190830000000005
20
-109.9816689999999966
11
109.9228480000000019
21
-109.9705129999999969
0
LINE
8
BLACK
6
CONTINUOUS
10
109.9228480000000019
20
-109.9705129999999969
11
109.9241839999999968
21
-109.9695639999999912
0
LINE
8
BLACK
6
CONTINUOUS
10
109.9241839999999968
20
-109.9695639999999912
11
109.9246610000000004
21
-109.9684149999999931
0
LINE
8
BLACK
6
CONTINUOUS
10
109.9246610000000004
20
-109.9684149999999931
11
109.9274109999999922
21
-109.9672750000000008
0
LINE
8
BLACK
6
CONTINUOUS
10
109.9274109999999922
20
-109.9672750000000008
11
109.9324499999999887
21
-109.9637010000000004
0
LINE
8
BLACK
6
CONTINUOUS
10
109.9324499999999887
20
-109.9637010000000004
11
109.9359429999999946
21
-109.9637400000000014
0
LINE
8
BLACK
6
CONTINUOUS
10
109.9359429999999946
20
-109.9637400000000014
11
109.9381309999999985
21
-109.9628340000000009
0
LINE
8
BLACK
6
CONTINUOUS
10
109.9381309999999985
20
-109.9628340000000009
11
112.0965499999999935
21
-109.9627229999999969
0
LINE
8
BLACK
6
CONTINUOUS
10
112.0965499999999935
20
-109.9627229999999969
11
112.0965499999999935
21
-96.6723999999999961
0
LINE
8
BLACK
6
CONTINUOUS
10
112.0965499999999935
20
-96.6723999999999961
11
112.0974769999999978
21
-96.6701609999999931
0
LINE
8
BLACK
6
CONTINUOUS
10
112.0974769999999978
20
-96.6701609999999931
11
112.0974700000000013
21
-96.6665500000000009
0
LINE
8
BLACK
6
CONTINUOUS
10
112.0974700000000013
20
-96.6665500000000009
11
112.0974709999999988
21
-96.6665500000000009
0
LINE
8
BLACK
6
CONTINUOUS
10
112.0974709999999988
20
-96.6665500000000009
11
112.5211240000000004
21
-95.4165449999999993
0
LINE
8
BLACK
6
CONTINUOUS
10
112.5211240000000004
20
-95.4165449999999993
11
112.9812399999999997
21
-94.1794969999999978
0
LINE
8
BLACK
6
CONTINUOUS
10
112.9812399999999997
20
-94.1794969999999978
11
113.47742199999999
21
-92.956468000000001
0
LINE
8
BLACK
6
CONTINUOUS
10
113.47742199999999
20
-92.956468000000001
11
114.0092449999999928
21
-91.748511999999991
0
LINE
8
BLACK
6
CONTINUOUS
10
114.0092449999999928
20
-91.748511999999991
11
114.5762509999999992
21
-90.5566639999999978
0
LINE
8
BLACK
6
CONTINUOUS
10
114.5762509999999992
20
-90.5566639999999978
11
115.177952999999988
21
-89.3819519999999983
0
LINE
8
BLACK
6
CONTINUOUS
10
115.177952999999988
20
-89.3819519999999983
11
115.8138329999999883
21
-88.2253829999999937
0
LINE
8
BLACK
6
CONTINUOUS
10
115.8138329999999883
20
-88.2253829999999937
11
116.4833459999999974
21
-87.0879520000000014
0
LINE
8
BLACK
6
CONTINUOUS
10
116.4833459999999974
20
-87.0879520000000014
11
117.1859149999999943
21
-85.9706369999999964
0
LINE
8
BLACK
6
CONTINUOUS
10
117.1859149999999943
20
-85.9706369999999964
11
117.9209359999999975
21
-84.8743989999999968
0
LINE
8
BLACK
6
CONTINUOUS
10
117.9209359999999975
20
-84.8743989999999968
11
118.6877789999999919
21
-83.800179
0
LINE
8
BLACK
6
CONTINUOUS
10
118.6877789999999919
20
-83.800179
11
119.4857829999999979
21
-82.7489009999999894
0
LINE
8
BLACK
6
CONTINUOUS
10
119.4857829999999979
20
-82.7489009999999894
11
120.3142619999999994
21
-81.721468999999999
0
LINE
8
BLACK
6
CONTINUOUS
10
120.3142619999999994
20
-81.721468999999999
11
121.172505000000001
21
-80.7187660000000022
0
LINE
8
BLACK
6
CONTINUOUS
10
121.172505000000001
20
-80.7187660000000022
11
122.0597739999999902
21
-79.7416529999999995
0
LINE
8
BLACK
6
CONTINUOUS
10
122.0597739999999902
20
-79.7416529999999995
11
122.9753059999999891
21
-78.790970999999999
0
LINE
8
BLACK
6
CONTINUOUS
10
122.9753059999999891
20
-78.790970999999999
11
123.9183149999999927
21
-77.8675369999999987
0
LINE
8
BLACK
6
CONTINUOUS
10
123.9183149999999927
20
-77.8675369999999987
11
124.8879879999999929
21
-76.9721440000000001
0
LINE
8
BLACK
6
CONTINUOUS
10
124.8879879999999929
20
-76.9721440000000001
11
125.8834939999999989
21
-76.1055619999999919
0
LINE
8
BLACK
6
CONTINUOUS
10
125.8834939999999989
20
-76.1055619999999919
11
126.9039760000000001
21
-75.2685369999999949
0
LINE
8
BLACK
6
CONTINUOUS
10
126.9039760000000001
20
-75.2685369999999949
11
127.9485579999999914
21
-74.4617870000000011
0
LINE
8
BLACK
6
CONTINUOUS
10
127.9485579999999914
20
-74.4617870000000011
11
129.0163399999999854
21
-73.6860059999999919
0
LINE
8
BLACK
6
CONTINUOUS
10
129.0163399999999854
20
-73.6860059999999919
11
130.1064059999999927
21
-72.9418620000000004
0
LINE
8
BLACK
6
CONTINUOUS
10
130.1064059999999927
20
-72.9418620000000004
11
131.2178179999999941
21
-72.2299919999999958
0
LINE
8
BLACK
6
CONTINUOUS
10
131.2178179999999941
20
-72.2299919999999958
11
132.3496219999999823
21
-71.5510110000000026
0
LINE
8
BLACK
6
CONTINUOUS
10
132.3496219999999823
20
-71.5510110000000026
11
133.5008440000000007
21
-70.9055000000000035
0
LINE
8
BLACK
6
CONTINUOUS
10
133.5008440000000007
20
-70.9055000000000035
11
134.6704939999999908
21
-70.2940150000000017
0
LINE
8
BLACK
6
CONTINUOUS
10
134.6704939999999908
20
-70.2940150000000017
11
135.8575669999999889
21
-69.7170819999999907
0
LINE
8
BLACK
6
CONTINUOUS
10
135.8575669999999889
20
-69.7170819999999907
11
137.0610439999999812
21
-69.1751959999999997
0
LINE
8
BLACK
6
CONTINUOUS
10
137.0610439999999812
20
-69.1751959999999997
11
138.2798879999999997
21
-68.6688240000000008
0
LINE
8
BLACK
6
CONTINUOUS
10
138.2798879999999997
20
-68.6688240000000008
11
139.5130539999999826
21
-68.1983999999999924
0
LINE
8
BLACK
6
CONTINUOUS
10
139.5130539999999826
20
-68.1983999999999924
11
140.7594799999999964
21
-67.7643290000000036
0
LINE
8
BLACK
6
CONTINUOUS
10
140.7594799999999964
20
-67.7643290000000036
11
142.0180949999999882
21
-67.3669849999999997
0
LINE
8
BLACK
6
CONTINUOUS
10
142.0180949999999882
20
-67.3669849999999997
11
143.2878179999999873
21
-67.0067069999999916
0
LINE
8
BLACK
6
CONTINUOUS
10
143.2878179999999873
20
-67.0067069999999916
11
144.5675559999999962
21
-66.6838079999999991
0
LINE
8
BLACK
6
CONTINUOUS
10
144.5675559999999962
20
-66.6838079999999991
11
145.8562110000000018
21
-66.3985619999999983
0
LINE
8
BLACK
6
CONTINUOUS
10
145.8562110000000018
20
-66.3985619999999983
11
147.1526739999999904
21
-66.1512170000000026
0
LINE
8
BLACK
6
CONTINUOUS
10
147.1526739999999904
20
-66.1512170000000026
11
148.4558299999999917
21
-65.9419850000000025
0
LINE
8
BLACK
6
CONTINUOUS
10
148.4558299999999917
20
-65.9419850000000025
11
149.7645609999999863
21
-65.7710450000000009
0
LINE
8
BLACK
6
CONTINUOUS
10
149.7645609999999863
20
-65.7710450000000009
11
151.0777400000000057
21
-65.6385449999999935
0
LINE
8
BLACK
6
CONTINUOUS
10
151.0777400000000057
20
-65.6385449999999935
11
152.3942389999999989
21
-65.5445979999999935
0
LINE
8
BLACK
6
CONTINUOUS
10
152.3942389999999989
20
-65.5445979999999935
11
153.7129259999999817
21
-65.4892849999999953
0
LINE
8
BLACK
6
CONTINUOUS
10
153.7129259999999817
20
-65.4892849999999953
11
155.032668000000001
21
-65.472652999999994
0
LINE
8
BLACK
6
CONTINUOUS
10
155.032668000000001
20
-65.472652999999994
11
156.3523299999999949
21
-65.4947179999999918
0
LINE
8
BLACK
6
CONTINUOUS
10
153.0547729999999831
20
-65.5453320000000019
11
151.7380119999999977
21
-65.6199149999999918
0
LINE
8
BLACK
6
CONTINUOUS
10
151.7380119999999977
20
-65.6199149999999918
11
150.424002999999999
21
-65.7330669999999913
0
LINE
8
BLACK
6
CONTINUOUS
10
150.424002999999999
20
-65.7330669999999913
11
149.1138760000000048
21
-65.8846920000000011
0
LINE
8
BLACK
6
CONTINUOUS
10
149.1138760000000048
20
-65.8846920000000011
11
147.8087569999999857
21
-66.0746579999999994
0
LINE
8
BLACK
6
CONTINUOUS
10
147.8087569999999857
20
-66.0746579999999994
11
146.5097679999999798
21
-66.3028019999999998
0
LINE
8
BLACK
6
CONTINUOUS
10
146.5097679999999798
20
-66.3028019999999998
11
145.218024999999983
21
-66.5689289999999971
0
LINE
8
BLACK
6
CONTINUOUS
10
145.218024999999983
20
-66.5689289999999971
11
143.9346390000000042
21
-66.8728100000000012
0
LINE
8
BLACK
6
CONTINUOUS
10
143.9346390000000042
20
-66.8728100000000012
11
142.660712999999987
21
-67.2141829999999914
0
LINE
8
BLACK
6
CONTINUOUS
10
142.660712999999987
20
-67.2141829999999914
11
141.3973419999999805
21
-67.5927539999999993
0
LINE
8
BLACK
6
CONTINUOUS
10
141.3973419999999805
20
-67.5927539999999993
11
140.1456119999999999
21
-68.0082000000000022
0
LINE
8
BLACK
6
CONTINUOUS
10
140.1456119999999999
20
-68.0082000000000022
11
138.9065989999999999
21
-68.4601619999999969
0
LINE
8
BLACK
6
CONTINUOUS
10
138.9065989999999999
20
-68.4601619999999969
11
137.681367999999992
21
-68.9482509999999991
0
LINE
8
BLACK
6
CONTINUOUS
10
137.681367999999992
20
-68.9482509999999991
11
136.4709719999999891
21
-69.4720489999999984
0
LINE
8
BLACK
6
CONTINUOUS
10
136.4709719999999891
20
-69.4720489999999984
11
135.2764520000000061
21
-70.0311059999999941
0
LINE
8
BLACK
6
CONTINUOUS
10
135.2764520000000061
20
-70.0311059999999941
11
134.0988339999999823
21
-70.6249399999999952
0
LINE
8
BLACK
6
CONTINUOUS
10
134.0988339999999823
20
-70.6249399999999952
11
132.9391300000000058
21
-71.2530399999999986
0
LINE
8
BLACK
6
CONTINUOUS
10
132.9391300000000058
20
-71.2530399999999986
11
131.7983380000000011
21
-71.9148689999999959
0
LINE
8
BLACK
6
CONTINUOUS
10
131.7983380000000011
20
-71.9148689999999959
11
130.6774389999999926
21
-72.609854999999996
0
LINE
8
BLACK
6
CONTINUOUS
10
130.6774389999999926
20
-72.609854999999996
11
129.5773939999999982
21
-73.3374029999999948
0
LINE
8
BLACK
6
CONTINUOUS
10
129.5773939999999982
20
-73.3374029999999948
11
128.4991509999999835
21
-74.0968859999999978
0
LINE
8
BLACK
6
CONTINUOUS
10
128.4991509999999835
20
-74.0968859999999978
11
127.4436359999999979
21
-74.8876509999999911
0
LINE
8
BLACK
6
CONTINUOUS
10
127.4436359999999979
20
-74.8876509999999911
11
126.4117559999999969
21
-75.7090199999999953
0
LINE
8
BLACK
6
CONTINUOUS
10
126.4117559999999969
20
-75.7090199999999953
11
125.4043980000000005
21
-76.5602859999999907
0
LINE
8
BLACK
6
CONTINUOUS
10
125.4043980000000005
20
-76.5602859999999907
11
124.4224289999999939
21
-77.4407169999999923
0
LINE
8
BLACK
6
CONTINUOUS
10
124.4224289999999939
20
-77.4407169999999923
11
123.4666919999999948
21
-78.3495559999999927
0
LINE
8
BLACK
6
CONTINUOUS
10
123.4666919999999948
20
-78.3495559999999927
11
122.5380079999999907
21
-79.2860230000000001
0
LINE
8
BLACK
6
CONTINUOUS
10
122.5380079999999907
20
-79.2860230000000001
11
121.6371769999999941
21
-80.2493120000000033
0
LINE
8
BLACK
6
CONTINUOUS
10
121.6371769999999941
20
-80.2493120000000033
11
120.7649720000000002
21
-81.2385949999999895
0
LINE
8
BLACK
6
CONTINUOUS
10
120.7649720000000002
20
-81.2385949999999895
11
119.9221429999999913
21
-82.2530220000000014
0
LINE
8
BLACK
6
CONTINUOUS
10
119.9221429999999913
20
-82.2530220000000014
11
119.109414000000001
21
-83.2917209999999955
0
LINE
8
BLACK
6
CONTINUOUS
10
119.109414000000001
20
-83.2917209999999955
11
118.3274849999999958
21
-84.3537989999999951
0
LINE
8
BLACK
6
CONTINUOUS
10
118.3274849999999958
20
-84.3537989999999951
11
117.5770270000000011
21
-85.438342999999989
0
LINE
8
BLACK
6
CONTINUOUS
10
117.5770270000000011
20
-85.438342999999989
11
116.8586859999999916
21
-86.5444209999999998
0
LINE
8
BLACK
6
CONTINUOUS
10
116.8586859999999916
20
-86.5444209999999998
11
116.1730779999999896
21
-87.6710819999999984
0
LINE
8
BLACK
6
CONTINUOUS
10
116.1730779999999896
20
-87.6710819999999984
11
115.5207939999999951
21
-88.8173570000000012
0
LINE
8
BLACK
6
CONTINUOUS
10
115.5207939999999951
20
-88.8173570000000012
11
114.9023929999999893
21
-89.9822619999999915
0
LINE
8
BLACK
6
CONTINUOUS
10
114.9023929999999893
20
-89.9822619999999915
11
114.3184079999999909
21
-91.164794999999998
0
LINE
8
BLACK
6
CONTINUOUS
10
114.3184079999999909
20
-91.164794999999998
11
113.7693399999999997
21
-92.3639399999999995
0
LINE
8
BLACK
6
CONTINUOUS
10
113.7693399999999997
20
-92.3639399999999995
11
113.2556620000000009
21
-93.5786650000000009
0
LINE
8
BLACK
6
CONTINUOUS
10
113.2556620000000009
20
-93.5786650000000009
11
112.7778149999999897
21
-94.8079269999999923
0
LINE
8
BLACK
6
CONTINUOUS
10
112.7778149999999897
20
-94.8079269999999923
11
112.3362089999999966
21
-96.0506689999999992
0
LINE
8
BLACK
6
CONTINUOUS
10
112.3362089999999966
20
-96.0506689999999992
11
112.1346499999999935
21
-96.6753980000000013
0
LINE
8
BLACK
6
CONTINUOUS
10
112.1346499999999935
20
-96.6753980000000013
11
112.1346499999999935
21
-109.9819999999999993
0
LINE
8
BLACK
6
CONTINUOUS
10
112.1346499999999935
20
-109.9819999999999993
11
112.1290699999999987
21
-109.9954699999999974
0
LINE
8
BLACK
6
CONTINUOUS
10
112.1290699999999987
20
-109.9954699999999974
11
112.1156000000000006
21
-110.0010499999999922
0
LINE
8
BLACK
6
CONTINUOUS
10
112.1156000000000006
20
-110.0010499999999922
11
112.1150519999999915
21
-110.0008229999999969
0
LINE
8
BLACK
6
CONTINUOUS
10
112.1150519999999915
20
-110.0008229999999969
11
109.9569669999999917
21
-110.0009329999999892
0
LINE
8
BLACK
6
CONTINUOUS
10
109.9569669999999917
20
-110.0009329999999892
11
109.9496489999999937
21
-110.6474199999999968
0
LINE
8
BLACK
6
CONTINUOUS
10
109.9496489999999937
20
-110.6474199999999968
11
109.973984999999999
21
-111.9779229999999899
0
LINE
8
BLACK
6
CONTINUOUS
10
109.973984999999999
20
-111.9779229999999899
11
110.0376589999999908
21
-113.3071259999999967
0
LINE
8
BLACK
6
CONTINUOUS
10
110.0376589999999908
20
-113.3071259999999967
11
110.1406159999999943
21
-114.633862999999991
0
LINE
8
BLACK
6
CONTINUOUS
10
110.1406159999999943
20
-114.633862999999991
11
110.2827649999999977
21
-115.9569749999999999
0
LINE
8
BLACK
6
CONTINUOUS
10
110.2827649999999977
20
-115.9569749999999999
11
110.4639829999999989
21
-117.2753049999999888
0
LINE
8
BLACK
6
CONTINUOUS
10
110.4639829999999989
20
-117.2753049999999888
11
110.6841110000000015
21
-118.587697999999989
0
LINE
8
BLACK
6
CONTINUOUS
10
110.6841110000000015
20
-118.587697999999989
11
110.9429559999999952
21
-119.8930069999999972
0
LINE
8
BLACK
6
CONTINUOUS
10
110.9429559999999952
20
-119.8930069999999972
11
111.2402919999999966
21
-121.1900899999999979
0
LINE
8
BLACK
6
CONTINUOUS
10
111.2402919999999966
20
-121.1900899999999979
11
111.5758579999999967
21
-122.4778120000000001
0
LINE
8
BLACK
6
CONTINUOUS
10
111.5758579999999967
20
-122.4778120000000001
11
111.9493619999999936
21
-123.755045999999993
0
LINE
8
BLACK
6
CONTINUOUS
10
111.9493619999999936
20
-123.755045999999993
11
112.3604759999999914
21
-125.0206759999999946
0
LINE
8
BLACK
6
CONTINUOUS
10
112.3604759999999914
20
-125.0206759999999946
11
112.8088399999999893
21
-126.2735929999999911
0
LINE
8
BLACK
6
CONTINUOUS
10
112.8088399999999893
20
-126.2735929999999911
11
113.2940629999999942
21
-127.5127019999999902
0
LINE
8
BLACK
6
CONTINUOUS
10
113.2940629999999942
20
-127.5127019999999902
11
113.8157199999999989
21
-128.7369190000000003
0
LINE
8
BLACK
6
CONTINUOUS
10
113.8157199999999989
20
-128.7369190000000003
11
114.3733549999999894
21
-129.9451719999999852
0
LINE
8
BLACK
6
CONTINUOUS
10
114.3733549999999894
20
-129.9451719999999852
11
114.9664789999999925
21
-131.1364049999999963
0
LINE
8
BLACK
6
CONTINUOUS
10
114.9664789999999925
20
-131.1364049999999963
11
115.5945739999999944
21
-132.3095759999999927
0
LINE
8
BLACK
6
CONTINUOUS
10
115.5945739999999944
20
-132.3095759999999927
11
116.2570909999999884
21
-133.463657999999981
0
LINE
8
BLACK
6
CONTINUOUS
10
116.2570909999999884
20
-133.463657999999981
11
116.953448999999992
21
-134.5976409999999817
0
LINE
8
BLACK
6
CONTINUOUS
10
116.953448999999992
20
-134.5976409999999817
11
117.6830389999999937
21
-135.7105339999999956
0
LINE
8
BLACK
6
CONTINUOUS
10
117.6830389999999937
20
-135.7105339999999956
11
118.4452239999999961
21
-136.8013619999999833
0
LINE
8
BLACK
6
CONTINUOUS
10
118.4452239999999961
20
-136.8013619999999833
11
119.2393369999999919
21
-137.8691719999999918
0
LINE
8
BLACK
6
CONTINUOUS
10
119.2393369999999919
20
-137.8691719999999918
11
120.0646819999999906
21
-138.9130289999999945
0
LINE
8
BLACK
6
CONTINUOUS
10
120.0646819999999906
20
-138.9130289999999945
11
120.9205369999999959
21
-139.9320209999999918
0
LINE
8
BLACK
6
CONTINUOUS
10
120.9205369999999959
20
-139.9320209999999918
11
121.8061549999999897
21
-140.9252549999999928
0
LINE
8
BLACK
6
CONTINUOUS
10
121.8061549999999897
20
-140.9252549999999928
11
122.7207599999999985
21
-141.8918630000000007
0
LINE
8
BLACK
6
CONTINUOUS
10
122.7207599999999985
20
-141.8918630000000007
11
123.6635509999999982
21
-142.8309989999999914
0
LINE
8
BLACK
6
CONTINUOUS
10
123.6635509999999982
20
-142.8309989999999914
11
124.633704999999992
21
-143.7418409999999938
0
LINE
8
BLACK
6
CONTINUOUS
10
124.633704999999992
20
-143.7418409999999938
11
125.6303729999999916
21
-144.6235929999999996
0
LINE
8
BLACK
6
CONTINUOUS
10
125.6303729999999916
20
-144.6235929999999996
11
126.6526819999999987
21
-145.475482999999997
0
LINE
8
BLACK
6
CONTINUOUS
10
126.6526819999999987
20
-145.475482999999997
11
127.6997379999999964
21
-146.2967669999999885
0
LINE
8
BLACK
6
CONTINUOUS
10
127.6997379999999964
20
-146.2967669999999885
11
128.7706249999999955
21
-147.0867240000000038
0
LINE
8
BLACK
6
CONTINUOUS
10
128.7706249999999955
20
-147.0867240000000038
11
129.8644060000000025
21
-147.844664999999992
0
LINE
8
BLACK
6
CONTINUOUS
10
129.8644060000000025
20
-147.844664999999992
11
130.9801249999999868
21
-148.569927000000007
0
LINE
8
BLACK
6
CONTINUOUS
10
130.9801249999999868
20
-148.569927000000007
11
132.1168049999999994
21
-149.2618740000000059
0
LINE
8
BLACK
6
CONTINUOUS
10
132.1168049999999994
20
-149.2618740000000059
11
133.2734519999999918
21
-149.9199019999999791
0
LINE
8
BLACK
6
CONTINUOUS
10
133.2734519999999918
20
-149.9199019999999791
11
134.4490539999999896
21
-150.5434339999999906
0
LINE
8
BLACK
6
CONTINUOUS
10
134.4490539999999896
20
-150.5434339999999906
11
135.6425830000000019
21
-151.1319259999999929
0
LINE
8
BLACK
6
CONTINUOUS
10
135.6425830000000019
20
-151.1319259999999929
11
136.8529939999999954
21
-151.6848619999999812
0
LINE
8
BLACK
6
CONTINUOUS
10
136.8529939999999954
20
-151.6848619999999812
11
138.0792280000000005
21
-152.2017579999999839
0
LINE
8
BLACK
6
CONTINUOUS
10
138.0792280000000005
20
-152.2017579999999839
11
139.3202129999999954
21
-152.6821640000000002
0
LINE
8
BLACK
6
CONTINUOUS
10
139.3202129999999954
20
-152.6821640000000002
11
140.574861999999996
21
-153.1256569999999897
0
LINE
8
BLACK
6
CONTINUOUS
10
140.574861999999996
20
-153.1256569999999897
11
141.8420799999999815
21
-153.531850999999989
0
LINE
8
BLACK
6
CONTINUOUS
10
141.8420799999999815
20
-153.531850999999989
11
143.1207550000000026
21
-153.9003889999999899
0
LINE
8
BLACK
6
CONTINUOUS
10
143.1207550000000026
20
-153.9003889999999899
11
144.4097710000000063
21
-154.2309500000000071
0
LINE
8
BLACK
6
CONTINUOUS
10
144.4097710000000063
20
-154.2309500000000071
11
145.7079999999999984
21
-154.5232440000000054
0
LINE
8
BLACK
6
CONTINUOUS
10
145.7079999999999984
20
-154.5232440000000054
11
147.0143050000000073
21
-154.7770160000000033
0
LINE
8
BLACK
6
CONTINUOUS
10
147.0143050000000073
20
-154.7770160000000033
11
148.3275429999999915
21
-154.9920429999999953
0
LINE
8
BLACK
6
CONTINUOUS
10
148.3275429999999915
20
-154.9920429999999953
11
149.6465670000000046
21
-155.168137999999999
0
LINE
8
BLACK
6
CONTINUOUS
10
149.6465670000000046
20
-155.168137999999999
11
150.9702209999999809
21
-155.3051459999999793
0
LINE
8
BLACK
6
CONTINUOUS
10
150.9702209999999809
20
-155.3051459999999793
11
152.297348999999997
21
-155.4029469999999833
0
LINE
8
BLACK
6
CONTINUOUS
10
152.297348999999997
20
-155.4029469999999833
11
153.6267880000000048
21
-155.4614569999999958
0
LINE
8
BLACK
6
CONTINUOUS
10
153.6267880000000048
20
-155.4614569999999958
11
154.9573769999999797
21
-155.48062299999998
0
LINE
8
BLACK
6
CONTINUOUS
10
154.9573769999999797
20
-155.48062299999998
11
156.287949999999995
21
-155.4604290000000049
0
LINE
8
BLACK
6
CONTINUOUS
10
156.287949999999995
20
-155.4604290000000049
11
157.6173440000000028
21
-155.4008919999999989
0
LINE
8
BLACK
6
CONTINUOUS
10
157.6173440000000028
20
-155.4008919999999989
11
158.9443949999999859
21
-155.3020659999999964
0
LINE
8
BLACK
6
CONTINUOUS
10
158.9443949999999859
20
-155.3020659999999964
11
160.267944
21
-155.1640349999999842
0
LINE
8
BLACK
6
CONTINUOUS
10
160.267944
20
-155.1640349999999842
11
161.5868309999999894
21
-154.9869219999999927
0
LINE
8
BLACK
6
CONTINUOUS
10
161.5868309999999894
20
-154.9869219999999927
11
162.8999029999999948
21
-154.7708800000000053
0
LINE
8
BLACK
6
CONTINUOUS
10
162.8999029999999948
20
-154.7708800000000053
11
164.2060109999999895
21
-154.5160999999999945
0
LINE
8
BLACK
6
CONTINUOUS
10
164.2060109999999895
20
-154.5160999999999945
11
165.5040139999999838
21
-154.222802999999999
0
LINE
8
BLACK
6
CONTINUOUS
10
165.5040139999999838
20
-154.222802999999999
11
166.7927739999999801
21
-153.8912459999999953
0
LINE
8
BLACK
6
CONTINUOUS
10
166.7927739999999801
20
-153.8912459999999953
11
168.0711649999999793
21
-153.5217199999999877
0
LINE
8
BLACK
6
CONTINUOUS
10
168.0711649999999793
20
-153.5217199999999877
11
169.3380679999999927
21
-153.114547999999985
0
LINE
8
BLACK
6
CONTINUOUS
10
169.3380679999999927
20
-153.114547999999985
11
170.5923739999999782
21
-152.6700850000000003
0
LINE
8
BLACK
6
CONTINUOUS
10
170.5923739999999782
20
-152.6700850000000003
11
171.8329880000000003
21
-152.1887219999999843
0
LINE
8
BLACK
6
CONTINUOUS
10
171.8329880000000003
20
-152.1887219999999843
11
173.0588219999999922
21
-151.6708779999999877
0
LINE
8
BLACK
6
CONTINUOUS
10
173.0588219999999922
20
-151.6708779999999877
11
174.2688059999999837
21
-151.117007000000001
0
LINE
8
BLACK
6
CONTINUOUS
10
174.2688059999999837
20
-151.117007000000001
11
175.4618789999999819
21
-150.5275939999999935
0
LINE
8
BLACK
6
CONTINUOUS
10
175.4618789999999819
20
-150.5275939999999935
11
176.636999000000003
21
-149.9031530000000032
0
LINE
8
BLACK
6
CONTINUOUS
10
176.636999000000003
20
-149.9031530000000032
11
177.7931370000000015
21
-149.2442319999999825
0
LINE
8
BLACK
6
CONTINUOUS
10
177.7931370000000015
20
-149.2442319999999825
11
178.9292829999999981
21
-148.5514069999999833
0
LINE
8
BLACK
6
CONTINUOUS
10
178.9292829999999981
20
-148.5514069999999833
11
180.0444409999999777
21
-147.8252839999999821
0
LINE
8
BLACK
6
CONTINUOUS
10
180.0444409999999777
20
-147.8252839999999821
11
181.1376369999999838
21
-147.0664989999999932
0
LINE
8
BLACK
6
CONTINUOUS
10
181.1376369999999838
20
-147.0664989999999932
11
182.2079129999999907
21
-146.2757139999999936
0
LINE
8
BLACK
6
CONTINUOUS
10
182.2079129999999907
20
-146.2757139999999936
11
183.2543349999999975
21
-145.4536219999999958
0
LINE
8
BLACK
6
CONTINUOUS
10
183.2543349999999975
20
-145.4536219999999958
11
184.2759849999999915
21
-144.6009420000000034
0
LINE
8
BLACK
6
CONTINUOUS
10
184.2759849999999915
20
-144.6009420000000034
11
185.2719709999999793
21
-143.7184210000000064
0
LINE
8
BLACK
6
CONTINUOUS
10
185.2719709999999793
20
-143.7184210000000064
11
186.2414210000000026
21
-142.8068289999999934
0
LINE
8
BLACK
6
CONTINUOUS
10
186.2414210000000026
20
-142.8068289999999934
11
187.1834869999999853
21
-141.8669649999999933
0
LINE
8
BLACK
6
CONTINUOUS
10
187.1834869999999853
20
-141.8669649999999933
11
188.09734499999999
21
-140.8996510000000058
0
LINE
8
BLACK
6
CONTINUOUS
10
188.09734499999999
20
-140.8996510000000058
11
188.9821949999999902
21
-139.9057329999999979
0
LINE
8
BLACK
6
CONTINUOUS
10
188.9821949999999902
20
-139.9057329999999979
11
189.8372640000000047
21
-138.8860809999999901
0
LINE
8
BLACK
6
CONTINUOUS
10
189.8372640000000047
20
-138.8860809999999901
11
190.6618019999999945
21
-137.8415870000000041
0
LINE
8
BLACK
6
CONTINUOUS
10
190.6618019999999945
20
-137.8415870000000041
11
191.4550889999999868
21
-136.7731629999999825
0
LINE
8
BLACK
6
CONTINUOUS
10
191.4550889999999868
20
-136.7731629999999825
11
192.216431
21
-135.6817470000000014
0
LINE
8
BLACK
6
CONTINUOUS
10
192.216431
20
-135.6817470000000014
11
192.9451619999999821
21
-134.5682909999999879
0
LINE
8
BLACK
6
CONTINUOUS
10
192.9451619999999821
20
-134.5682909999999879
11
193.6406439999999805
21
-133.4337699999999813
0
LINE
8
BLACK
6
CONTINUOUS
10
193.6406439999999805
20
-133.4337699999999813
11
194.3022689999999955
21
-132.2791770000000042
0
LINE
8
BLACK
6
CONTINUOUS
10
194.3022689999999955
20
-132.2791770000000042
11
194.9294569999999851
21
-131.1055209999999818
0
LINE
8
BLACK
6
CONTINUOUS
10
194.9294569999999851
20
-131.1055209999999818
11
195.5216609999999946
21
-129.9138299999999902
0
LINE
8
BLACK
6
CONTINUOUS
10
195.5216609999999946
20
-129.9138299999999902
11
196.0783619999999985
21
-128.7051469999999824
0
LINE
8
BLACK
6
CONTINUOUS
10
196.0783619999999985
20
-128.7051469999999824
11
196.5990740000000017
21
-127.480526999999995
0
LINE
8
BLACK
6
CONTINUOUS
10
196.5990740000000017
20
-127.480526999999995
11
197.0833389999999952
21
-126.241043999999988
0
LINE
8
BLACK
6
CONTINUOUS
10
197.0833389999999952
20
-126.241043999999988
11
197.5307359999999903
21
-124.9877809999999982
0
LINE
8
BLACK
6
CONTINUOUS
10
197.5307359999999903
20
-124.9877809999999982
11
197.9408719999999846
21
-123.7218340000000012
0
LINE
8
BLACK
6
CONTINUOUS
10
197.9408719999999846
20
-123.7218340000000012
11
198.1263500000000022
21
-123.0856799999999964
0
LINE
8
BLACK
6
CONTINUOUS
10
198.1263500000000022
20
-123.0856799999999964
11
198.1263500000000022
21
-115.3159999999999883
0
LINE
8
BLACK
6
CONTINUOUS
10
198.1263500000000022
20
-115.3159999999999883
11
198.1319299999999828
21
-115.3025299999999902
0
LINE
8
BLACK
6
CONTINUOUS
10
198.1319299999999828
20
-115.3025299999999902
11
198.1453999999999951
21
-115.2969499999999954
0
LINE
8
BLACK
6
CONTINUOUS
10
198.1453999999999951
20
-115.2969499999999954
11
199.6522939999999835
21
-115.2969499999999954
0
LINE
8
BLACK
6
CONTINUOUS
10
199.6522939999999835
20
-115.2969499999999954
11
199.7111579999999833
21
-114.7512809999999916
0
LINE
8
BLACK
6
CONTINUOUS
10
199.7111579999999833
20
-114.7512809999999916
11
199.8042169999999942
21
-113.623234999999994
0
LINE
8
BLACK
6
CONTINUOUS
10
199.8042169999999942
20
-113.623234999999994
11
199.8688589999999863
21
-112.4932029999999941
0
LINE
8
BLACK
6
CONTINUOUS
10
199.8688589999999863
20
-112.4932029999999941
11
199.9050409999999829
21
-111.3619029999999981
0
LINE
8
BLACK
6
CONTINUOUS
10
199.9050409999999829
20
-111.3619029999999981
11
199.9127429999999777
21
-110.2300499999999914
0
LINE
8
BLACK
6
CONTINUOUS
10
199.9127429999999777
20
-110.2300499999999914
11
199.8919579999999883
21
-109.0983619999999945
0
LINE
8
BLACK
6
CONTINUOUS
10
199.8919579999999883
20
-109.0983619999999945
11
199.8426999999999794
21
-107.9675560000000019
0
LINE
8
BLACK
6
CONTINUOUS
10
199.8426999999999794
20
-107.9675560000000019
11
199.7649989999999889
21
-106.8383469999999988
0
LINE
8
BLACK
6
CONTINUOUS
10
199.7649989999999889
20
-106.8383469999999988
11
199.6589060000000018
21
-105.7114509999999967
0
LINE
8
BLACK
6
CONTINUOUS
10
199.6589060000000018
20
-105.7114509999999967
11
199.593718999999993
21
-105.1663429999999977
0
LINE
8
BLACK
6
CONTINUOUS
10
199.593718999999993
20
-105.1663429999999977
11
195.9356449999999938
21
-105.1750499999999988
0
LINE
8
BLACK
6
CONTINUOUS
10
195.9356449999999938
20
-105.1750499999999988
11
195.935625999999985
21
-105.1750419999999906
0
LINE
8
BLACK
6
CONTINUOUS
10
195.935625999999985
20
-105.1750419999999906
11
195.935608000000002
21
-105.1750499999999988
0
LINE
8
BLACK
6
CONTINUOUS
10
195.935608000000002
20
-105.1750499999999988
11
195.9290149999999926
21
-105.1723219999999941
0
LINE
8
BLACK
6
CONTINUOUS
10
195.9290149999999926
20
-105.1723219999999941
11
195.9221619999999859
21
-105.1695019999999943
0
LINE
8
BLACK
6
CONTINUOUS
10
195.9221619999999859
20
-105.1695019999999943
11
195.9221539999999777
21
-105.1694820000000021
0
LINE
8
BLACK
6
CONTINUOUS
10
195.9221539999999777
20
-105.1694820000000021
11
195.9221349999999973
21
-105.1694749999999914
0
LINE
8
BLACK
6
CONTINUOUS
10
195.9221349999999973
20
-105.1694749999999914
11
195.9193139999999858
21
-105.1626739999999955
0
LINE
8
BLACK
6
CONTINUOUS
10
195.9193139999999858
20
-105.1626739999999955
11
195.9165500000000009
21
-105.1560449999999918
0
LINE
8
BLACK
6
CONTINUOUS
10
195.9165500000000009
20
-105.1560449999999918
11
195.9165569999999832
21
-105.1560259999999971
0
LINE
8
BLACK
6
CONTINUOUS
10
195.9165569999999832
20
-105.1560259999999971
11
195.9165500000000009
21
-105.1560079999999999
0
LINE
8
BLACK
6
CONTINUOUS
10
195.9165500000000009
20
-105.1560079999999999
11
195.9111639999999852
21
-91.9291559999999919
0
LINE
8
BLACK
6
CONTINUOUS
10
195.9111639999999852
20
-91.9291559999999919
11
195.6408089999999902
21
-91.3321969999999936
0
LINE
8
BLACK
6
CONTINUOUS
10
195.6408089999999902
20
-91.3321969999999936
11
195.061696999999981
21
-90.1472689999999943
0
LINE
8
BLACK
6
CONTINUOUS
10
195.061696999999981
20
-90.1472689999999943
11
194.4480979999999875
21
-88.9798279999999977
0
LINE
8
BLACK
6
CONTINUOUS
10
194.4480979999999875
20
-88.9798279999999977
11
193.8005379999999889
21
-87.830877000000001
0
LINE
8
BLACK
6
CONTINUOUS
10
193.8005379999999889
20
-87.830877000000001
11
193.1195749999999975
21
-86.7014029999999991
0
LINE
8
BLACK
6
CONTINUOUS
10
193.1195749999999975
20
-86.7014029999999991
11
192.4057929999999885
21
-85.592376999999999
0
LINE
8
BLACK
6
CONTINUOUS
10
192.4057929999999885
20
-85.592376999999999
11
191.6598060000000032
21
-84.5047529999999938
0
LINE
8
BLACK
6
CONTINUOUS
10
191.6598060000000032
20
-84.5047529999999938
11
190.8822559999999839
21
-83.4394649999999984
0
LINE
8
BLACK
6
CONTINUOUS
10
190.8822559999999839
20
-83.4394649999999984
11
190.0738109999999779
21
-82.3974279999999908
0
LINE
8
BLACK
6
CONTINUOUS
10
190.0738109999999779
20
-82.3974279999999908
11
189.2351659999999924
21
-81.3795399999999916
0
LINE
8
BLACK
6
CONTINUOUS
10
189.2351659999999924
20
-81.3795399999999916
11
188.3670410000000004
21
-80.3866749999999968
0
LINE
8
BLACK
6
CONTINUOUS
10
188.3670410000000004
20
-80.3866749999999968
11
187.4701829999999916
21
-79.4196850000000012
0
LINE
8
BLACK
6
CONTINUOUS
10
187.4701829999999916
20
-79.4196850000000012
11
186.5453629999999805
21
-78.4794029999999907
0
LINE
8
BLACK
6
CONTINUOUS
10
186.5453629999999805
20
-78.4794029999999907
11
185.5933749999999804
21
-77.5666370000000001
0
LINE
8
BLACK
6
CONTINUOUS
10
185.5933749999999804
20
-77.5666370000000001
11
184.6150389999999959
21
-76.6821699999999993
0
LINE
8
BLACK
6
CONTINUOUS
10
184.6150389999999959
20
-76.6821699999999993
11
183.6111939999999834
21
-75.8267649999999946
0
LINE
8
BLACK
6
CONTINUOUS
10
183.6111939999999834
20
-75.8267649999999946
11
182.5827050000000042
21
-75.0011549999999971
0
LINE
8
BLACK
6
CONTINUOUS
10
182.5827050000000042
20
-75.0011549999999971
11
181.5304539999999918
21
-74.2060499999999905
0
LINE
8
BLACK
6
CONTINUOUS
10
181.5304539999999918
20
-74.2060499999999905
11
180.4553469999999891
21
-73.4421339999999958
0
LINE
8
BLACK
6
CONTINUOUS
10
180.4553469999999891
20
-73.4421339999999958
11
179.3583069999999964
21
-72.7100640000000027
0
LINE
8
BLACK
6
CONTINUOUS
10
179.3583069999999964
20
-72.7100640000000027
11
178.2402779999999893
21
-72.0104690000000005
0
LINE
8
BLACK
6
CONTINUOUS
10
178.2402779999999893
20
-72.0104690000000005
11
177.1022199999999884
21
-71.3439499999999924
0
LINE
8
BLACK
6
CONTINUOUS
10
177.1022199999999884
20
-71.3439499999999924
11
175.9451129999999921
21
-70.7110799999999955
0
LINE
8
BLACK
6
CONTINUOUS
10
175.9451129999999921
20
-70.7110799999999955
11
174.7699489999999969
21
-70.1124030000000005
0
LINE
8
BLACK
6
CONTINUOUS
10
174.7699489999999969
20
-70.1124030000000005
11
173.5777410000000032
21
-69.5484330000000028
0
LINE
8
BLACK
6
CONTINUOUS
10
173.5777410000000032
20
-69.5484330000000028
11
172.3695109999999886
21
-69.0196559999999977
0
LINE
8
BLACK
6
CONTINUOUS
10
172.3695109999999886
20
-69.0196559999999977
11
171.1462999999999965
21
-68.5265270000000015
0
LINE
8
BLACK
6
CONTINUOUS
10
171.1462999999999965
20
-68.5265270000000015
11
169.9091579999999908
21
-68.0694680000000005
0
LINE
8
BLACK
6
CONTINUOUS
10
169.9091579999999908
20
-68.0694680000000005
11
168.6591489999999851
21
-67.6488729999999947
0
LINE
8
BLACK
6
CONTINUOUS
10
168.6591489999999851
20
-67.6488729999999947
11
167.3973479999999938
21
-67.2651029999999963
0
LINE
8
BLACK
6
CONTINUOUS
10
167.3973479999999938
20
-67.2651029999999963
11
166.1248379999999827
21
-66.9184879999999964
0
LINE
8
BLACK
6
CONTINUOUS
10
166.1248379999999827
20
-66.9184879999999964
11
164.8427140000000009
21
-66.6093259999999958
0
LINE
8
BLACK
6
CONTINUOUS
10
164.8427140000000009
20
-66.6093259999999958
11
163.5520779999999945
21
-66.3378840000000025
0
LINE
8
BLACK
6
CONTINUOUS
10
163.5520779999999945
20
-66.3378840000000025
11
162.2540390000000059
21
-66.1043930000000017
0
LINE
8
BLACK
6
CONTINUOUS
10
162.2540390000000059
20
-66.1043930000000017
11
160.9497130000000027
21
-65.9090559999999925
0
LINE
8
BLACK
6
CONTINUOUS
10
160.9497130000000027
20
-65.9090559999999925
11
159.6402209999999968
21
-65.7520389999999963
0
LINE
8
BLACK
6
CONTINUOUS
10
159.6402209999999968
20
-65.7520389999999963
11
158.3266889999999876
21
-65.6334779999999967
0
LINE
8
BLACK
6
CONTINUOUS
10
158.3266889999999876
20
-65.6334779999999967
11
157.0102459999999951
21
-65.5534739999999942
0
LINE
8
BLACK
6
CONTINUOUS
10
157.0102459999999951
20
-65.5534739999999942
11
155.6920240000000035
21
-65.5120969999999971
0
LINE
8
BLACK
6
CONTINUOUS
10
155.6920240000000035
20
-65.5120969999999971
11
154.373154999999997
21
-65.5093829999999997
0
LINE
8
BLACK
6
CONTINUOUS
10
154.373154999999997
20
-65.5093829999999997
11
153.0547729999999831
21
-65.5453320000000019
  0
ENDSEC
  0
EOF
