<?xml version="1.0" encoding="UTF-8" standalone="no"?>
<svg
   viewBox="0 0 449.05301 487.05899"
   x="0px"
   y="0px"
   version="1.1"
   id="svg10"
   sodipodi:docname="logo.svg"
   inkscape:version="1.2 (dc2aeda, 2022-05-15)"
   xml:space="preserve"
   width="449.05301"
   height="487.05899"
   xmlns:inkscape="http://www.inkscape.org/namespaces/inkscape"
   xmlns:sodipodi="http://sodipodi.sourceforge.net/DTD/sodipodi-0.dtd"
   xmlns="http://www.w3.org/2000/svg"
   xmlns:svg="http://www.w3.org/2000/svg"
   xmlns:rdf="http://www.w3.org/1999/02/22-rdf-syntax-ns#"
   xmlns:cc="http://creativecommons.org/ns#"
   xmlns:dc="http://purl.org/dc/elements/1.1/"><defs
     id="defs14"><clipPath
       clipPathUnits="userSpaceOnUse"
       id="clipPath621"><path
         id="path623"
         style="fill:#800080"
         d="M -3.8345709,1.9177732 V 518.70488 H 513.91153 V 1.9177732 Z M 130.3959,224.35723 h 259.83203 v 53.6914 H 130.3959 Z" /></clipPath></defs><sodipodi:namedview
     id="namedview12"
     pagecolor="#ffffff"
     bordercolor="#000000"
     borderopacity="0.25"
     inkscape:showpageshadow="2"
     inkscape:pageopacity="0.0"
     inkscape:pagecheckerboard="0"
     inkscape:deskcolor="#d1d1d1"
     showgrid="false"
     inkscape:zoom="1.4942838"
     inkscape:cx="194.40752"
     inkscape:cy="275.38277"
     inkscape:window-width="1470"
     inkscape:window-height="829"
     inkscape:window-x="0"
     inkscape:window-y="37"
     inkscape:window-maximized="1"
     inkscape:current-layer="svg10"
     showguides="true" /><title
     id="title2">icon_920Artboard 1</title><path
     id="path321"
     clip-path="none"
     style="display:inline"
     d="M 243.56055,0 C 211.55958,0 185.30042,24.984781 183.23242,56.46875 H 95.554688 C 42.865739,56.46875 0,99.324053 0,152 c 0,52.67595 42.865739,95.5293 95.554688,95.5293 l 11.872082,-0.59466 3.23535,-7.48868 -15.107432,0.0833 C 47.277469,239.79562 8,200.262 8,151.99805 8,103.7341 47.276735,64.46875 95.554688,64.46875 h 87.677732 c 2.07,31.457969 28.32916,56.42383 60.32813,56.42383 h 116.44922 c 8.74399,0 16.06634,-6.13551 17.90234,-14.3125 h 67.14062 c 2.209,0 4,-1.791 4,-4 V 18.310547 c 0,-2.208998 -1.791,-4 -4,-4 H 377.91211 C 376.07611,6.1335551 368.75376,0 360.00977,0 Z m 134.80664,22.310547 h 62.6875 v 76.271484 h -0.002 -62.68554 z M 349,239.5293 l -1.03074,7.81259 5.55418,0.18741 c 48.2375,1.62762 87.52929,39.2673 87.52929,87.53125 0,48.26395 -39.26534,87.53125 -87.52929,87.53125 h -87.70117 c -2.066,-31.48697 -28.31286,-56.47657 -60.29883,-56.47657 H 89.050781 c -8.742991,0 -16.063533,6.15729 -17.894531,14.36329 H 4 c -2.2089978,0 -4,1.791 -4,4 v 84.21679 c 0,2.209 1.7910022,4 4,4 h 67.15625 c 1.830998,8.20599 9.15154,14.36328 17.894531,14.36328 H 205.52344 c 31.98497,0 58.23083,-24.98478 60.29883,-56.46875 h 87.70117 c 52.67594,0 95.52929,-42.8553 95.52929,-95.53125 0,-52.67594 -42.85335,-95.52929 -95.52929,-95.52929 z M 8,388.48047 h 62.705078 v 76.2168 H 8 Z"
     sodipodi:nodetypes="scsssccssscsscsssscssccccccccssscsscsssscsscssscccccc" /><metadata
     id="metadata4953"><rdf:RDF><cc:Work
         rdf:about=""><dc:title>icon_920Artboard 1</dc:title></cc:Work></rdf:RDF></metadata><path
     style="fill:#000000;stroke-width:0.0732851"
     d="m 158.14005,355.80408 c -8.16984,-0.28577 -17.26693,-1.67007 -24.29399,-3.6968 -4.24882,-1.22545 -8.61729,-2.9796 -12.71496,-5.10568 -10.86483,-5.63724 -19.15988,-12.6923 -25.187664,-21.42248 -4.6684,-6.76134 -8.004431,-14.79115 -9.727715,-23.41456 -1.471835,-7.36503 -1.410594,-14.92831 0.183187,-22.62484 1.746954,-8.43625 5.642308,-17.24856 10.971198,-24.81976 3.162344,-4.49302 6.322574,-8.25654 10.303474,-12.27043 6.18249,-6.23371 12.35839,-11.0448 20.17109,-15.71349 1.50779,-0.90101 6.44859,-3.73397 7.89768,-4.52838 0.39806,-0.21822 0.76626,-0.46347 0.81822,-0.54502 0.052,-0.0815 0.41378,-1.22006 0.80401,-2.53003 2.95817,-9.93003 6.46565,-20.35507 10.44207,-31.03621 1.2176,-3.27064 1.51277,-4.41614 1.83169,-7.10865 0.59481,-5.0217 1.58345,-9.8668 3.04306,-14.9135 0.94157,-3.2555 2.70723,-8.25395 3.79248,-10.73626 2.33196,-5.33388 5.38059,-9.92524 8.95361,-13.48445 4.41309,-4.39602 9.58252,-6.73557 15.43748,-6.9866 5.31152,-0.22774 10.55577,1.00472 16.00622,3.76161 3.3191,1.67883 7.65099,4.61357 13.11081,8.88224 0.68954,0.53912 0.92168,0.68191 1.10854,0.68191 0.33401,0 3.13442,-1.55014 6.48368,-3.58897 4.90177,-2.98392 8.42071,-4.54764 13.52113,-6.00843 7.86879,-2.25367 16.29879,-4.01816 25.53978,-5.34571 5.53563,-0.79525 7.48218,-0.93726 10.11334,-0.73783 4.75159,0.36016 9.29562,2.08506 12.75668,4.84238 3.21528,2.5615 6.35989,6.52483 8.92329,11.24657 1.14871,2.11588 1.82242,3.72329 3.23851,7.72664 3.16142,8.93758 9.33138,26.04946 9.92508,27.5265 0.0666,0.16561 0.203,0.34499 0.30317,0.39859 0.2368,0.12674 2.81244,0.12497 4.20733,-0.003 2.50686,-0.22977 6.37753,-0.0109 11.71526,0.66252 6.18058,0.77973 11.85191,1.98047 17.81861,3.77258 5.21575,1.56655 8.50206,3.0423 12.27524,5.51225 4.19877,2.74856 7.4183,5.83631 9.41832,9.03285 0.55868,0.89292 1.47662,2.82228 1.82945,3.84523 1.27601,3.69953 1.49913,7.32544 0.72837,11.83628 -1.15741,6.77369 -3.42943,13.25522 -7.07709,20.18935 -3.96031,7.52848 -8.03448,13.65292 -13.72501,20.6319 -9.63746,11.81959 -20.02462,22.48375 -31.49136,32.33118 -18.15548,15.59156 -38.33193,28.99634 -59.8105,39.7367 -13.22675,6.61406 -27.66933,12.57297 -39.44352,16.27416 -9.73024,3.05868 -18.80331,5.12179 -28.83767,6.55739 -7.22003,1.03293 -14.27518,1.42004 -21.36258,1.17213 z m 9.71027,-6.29855 c 10.81278,-0.38226 21.02028,-1.98342 31.36599,-4.92011 5.00194,-1.41983 12.14499,-3.80563 18.61439,-6.21726 14.72618,-5.48952 30.4936,-13.06679 45.09125,-21.66927 18.1176,-10.67678 34.94044,-23.29341 50.10228,-37.57521 3.47344,-3.27183 8.91118,-8.85266 12.36033,-12.68558 7.68433,-8.53938 15.51118,-18.76071 19.64747,-25.65829 1.82764,-3.04775 3.79041,-6.8079 4.83522,-9.26299 1.58429,-3.72284 2.68116,-7.45256 3.35109,-11.39486 1.19655,-7.04129 0.64751,-10.57753 -2.28703,-14.73028 -1.8335,-2.59466 -3.7794,-4.57927 -5.73122,-5.84521 -5.69484,-3.69372 -13.822,-6.50474 -23.4512,-8.11132 -3.82878,-0.63881 -8.60717,-1.18757 -13.44781,-1.54437 -2.65373,-0.19561 -3.16956,-0.13626 -2.56393,0.29498 0.19259,0.13716 0.43419,0.17515 1.88708,0.29675 7.38362,0.61804 13.08139,1.53734 19.51111,3.14805 4.95116,1.24031 8.68407,2.81662 13.15465,5.55485 3.22959,1.97811 5.65644,4.24018 7.40533,6.90246 1.71359,2.60859 2.63549,5.45657 2.88975,8.92721 0.27687,3.77952 -0.91194,9.0838 -3.4003,15.17162 -2.05076,5.01721 -4.65265,9.72042 -8.05429,14.55903 -4.5091,6.41391 -6.16908,8.53258 -11.08802,14.15187 -12.14855,13.87822 -25.71523,26.51425 -40.02375,37.27823 -10.19181,7.66708 -20.44676,14.32464 -31.85289,20.67905 -5.77258,3.21591 -13.03945,6.87664 -20.27035,10.21128 -4.1569,1.91705 -11.74524,5.17075 -15.53643,6.66168 -10.5897,4.16453 -21.73947,7.32733 -32.3793,9.18484 -9.23938,1.61303 -16.81864,2.21738 -25.57557,2.03934 -9.5898,-0.19498 -16.72039,-1.36917 -24.78392,-4.08117 -11.02787,-3.709 -19.56779,-9.52001 -26.78082,-18.22313 -4.66445,-5.62804 -8.02766,-12.35562 -9.89175,-19.78696 -0.997594,-3.97698 -1.343704,-6.59775 -1.413054,-10.69961 -0.0585,-3.46351 0.0845,-5.31022 0.677924,-8.75757 1.95077,-11.33096 6.69678,-21.76337 14.01926,-30.81634 1.88725,-2.33325 3.70716,-4.30611 6.8357,-7.4102 3.78421,-3.75462 6.36367,-6.09708 10.63038,-9.65363 1.04738,-0.87306 1.35421,-1.17232 1.59832,-1.55885 0.16617,-0.2631 0.29191,-0.53076 0.27942,-0.59481 -0.0165,-0.0848 -0.67926,0.32206 -2.44111,1.49877 -2.82099,1.88406 -9.0675,6.1429 -10.0767,6.87023 -5.47496,3.94585 -10.46866,8.66144 -14.67017,13.85316 -5.6667,7.00225 -9.417694,14.27264 -11.702084,22.68173 -1.4426,5.31038 -2.08484,10.72078 -1.85344,15.61408 0.65344,13.81838 5.75852,25.70546 15.285874,35.59277 4.91737,5.10318 11.48532,9.63298 18.44387,12.72043 6.87046,3.04834 15.42048,5.44077 23.23309,6.50097 5.4205,0.73559 11.86575,1.02246 18.05536,0.80364 z m 9.96676,-46.0216 c 13.16079,-0.87607 26.26357,-3.50389 38.62122,-7.74564 8.81582,-3.02602 16.84214,-6.64421 26.30933,-11.86002 11.00766,-6.0645 22.95004,-14.46381 31.40262,-22.0861 3.39997,-3.06598 7.70045,-7.38303 10.70548,-10.74671 7.81856,-8.75175 13.53349,-16.88551 17.50509,-24.91412 1.47205,-2.97576 2.8623,-6.16666 2.8623,-6.56958 0,-0.42035 -3.60777,-12.10662 -6.19585,-20.06953 -1.42163,-4.37404 -4.02481,-12.17444 -5.3683,-16.08607 -3.13945,-9.14065 -8.89574,-24.93372 -10.16556,-27.89038 -1.0953,-2.55035 -2.84367,-5.85788 -4.38827,-8.30166 -1.09062,-1.72551 -1.63493,-2.43762 -2.7171,-3.55484 -1.88105,-1.94194 -3.95428,-3.17909 -6.3424,-3.78466 -1.49941,-0.38022 -2.4929,-0.48786 -4.88375,-0.52914 -3.60535,-0.0622 -6.28624,0.15266 -10.24896,0.82156 -6.46377,1.09107 -12.83708,2.51999 -18.32124,4.10767 -8.63896,2.50099 -17.01912,6.38384 -24.66042,11.4261 -4.1096,2.7118 -6.4365,4.8024 -9.30283,8.3581 -3.93947,4.88693 -7.94907,10.37619 -11.80353,16.15936 -3.33887,5.00958 -5.40558,7.79635 -7.79914,10.5164 -2.25723,2.56511 -5.16656,5.58067 -6.49117,6.72814 -3.10049,2.68585 -6.31731,4.165 -10.25991,4.71766 -0.65667,0.092 -1.39335,0.12844 -2.60162,0.1285 -1.45791,0 -1.79769,-0.0223 -2.51585,-0.16582 -1.42716,-0.28515 -2.31584,-0.69193 -3.16805,-1.4501 -1.0363,-0.92194 -1.6753,-2.05927 -1.94441,-3.46079 -0.19063,-0.99277 -0.0878,-3.92568 0.19822,-5.65482 0.0433,-0.26199 0.65114,-2.61994 1.35065,-5.23987 1.60782,-6.02179 2.89388,-10.87847 4.20141,-15.86622 1.2561,-4.79155 1.39581,-5.2802 2.16844,-7.58501 1.40815,-4.20053 3.46047,-8.76945 4.93788,-10.99274 1.00591,-1.51376 1.53305,-2.15155 2.9395,-3.55657 3.28057,-3.27719 6.7403,-5.04133 10.31446,-5.25944 3.79388,-0.23151 9.14663,1.23183 13.47003,3.68245 3.10038,1.75738 9.08387,6.1003 12.31188,8.93618 0.7259,0.63771 0.83161,0.70619 1.06202,0.68798 0.32121,-0.0254 0.36828,-0.19692 0.13424,-0.48918 -0.45042,-0.56242 -4.35351,-3.72311 -6.76592,-5.47897 -3.39083,-2.468 -7.89631,-5.27409 -10.77887,-6.71329 -4.83221,-2.41258 -9.3986,-2.88433 -13.80826,-1.42653 -1.76125,0.58226 -4.05801,1.85955 -5.71623,3.17897 -0.92931,0.73943 -2.66878,2.50571 -3.48986,3.54364 -1.35012,1.70665 -2.62242,3.73583 -3.51636,5.60818 -3.01602,6.31704 -5.34474,13.24626 -6.76295,20.12363 -0.3106,1.50621 -1.49984,8.31742 -2.87544,16.4686 -0.77947,4.61883 -0.81216,4.85605 -0.81473,5.91121 -0.003,1.30554 0.10184,1.89975 0.52878,2.99164 0.75927,1.94196 1.95419,3.27366 3.69206,4.11469 1.29582,0.62709 2.5372,0.87673 4.33437,0.87165 2.41707,-0.006 5.23889,-0.55617 7.54835,-1.46944 0.87738,-0.34694 2.64163,-1.22896 3.41118,-1.7054 2.14748,-1.32948 6.32285,-4.52121 8.92821,-6.82488 2.35229,-2.07991 3.06144,-2.81963 4.89151,-5.10238 3.36658,-4.19931 7.83587,-9.46155 12.37025,-14.56495 2.9555,-3.32639 4.04775,-4.49493 6.37676,-6.82213 4.88112,-4.87735 9.60655,-8.86921 15.13023,-12.78138 4.36216,-3.08955 10.36796,-6.70185 14.31935,-8.61268 6.55541,-3.1701 13.58621,-5.32114 20.829,-6.37253 1.23751,-0.17965 3.27132,-0.39905 5.16659,-0.55734 1.25349,-0.10473 5.20195,0.0213 5.92562,0.18922 1.9353,0.44882 2.78799,2.13077 2.50609,4.94332 -0.17749,1.77106 -0.585,3.10405 -1.54415,5.0511 -2.46792,5.00985 -5.50198,9.36054 -9.45042,13.55146 -3.4702,3.68333 -10.36258,9.75365 -15.20876,13.39482 -6.81762,5.12239 -13.30175,9.11455 -21.21601,13.06224 -12.97109,6.47007 -26.05021,10.87638 -39.59517,13.3394 -1.41356,0.25705 -1.51445,0.31186 -0.81551,0.44306 0.40655,0.0763 2.1732,-0.15894 6.04,-0.80428 13.36651,-2.2308 23.90295,-5.16477 34.33404,-9.56065 10.07194,-4.24453 20.85899,-10.50921 27.95823,-16.237 1.86435,-1.5042 2.98758,-2.52993 5.24365,-4.78861 6.7797,-6.78752 10.96337,-12.96516 14.06132,-20.76306 0.65497,-1.64864 1.43843,-3.97594 1.70794,-5.07337 0.47505,-1.93455 0.10205,-3.73424 -1.07994,-5.21036 -0.41139,-0.51378 -0.54053,-0.80185 -0.35945,-0.80185 0.0438,0 0.29942,0.12156 0.56796,0.27014 1.37849,0.76267 2.74167,1.87533 3.62893,2.96201 0.78034,0.9557 1.4251,2.04429 2.59989,4.38949 1.55712,3.10847 2.05098,4.32109 3.96963,9.74691 4.25163,12.02334 7.12582,20.68515 10.73626,32.35535 1.60417,5.18523 2.5359,8.09814 3.80884,11.90779 0.54528,1.63187 0.99141,3.02886 0.99141,3.10444 0,0.077 -0.2572,0.37919 -0.58453,0.68689 -0.5188,0.48767 -0.63543,0.64951 -1.03714,1.43922 -0.55941,1.09976 -1.70642,2.95124 -3.54765,5.72658 -5.47183,8.24784 -11.4821,15.54304 -18.65967,22.64888 -5.92495,5.86574 -11.47719,10.5649 -18.56219,15.71011 -11.84867,8.60466 -24.28992,15.46737 -37.34294,20.59876 -11.48204,4.51379 -23.92752,7.75013 -34.07754,8.86156 -3.40403,0.37274 -5.18475,0.4947 -8.77445,0.60094 -6.99859,0.20713 -12.59552,-0.43734 -18.63416,-2.1457 -4.88414,-1.38175 -8.1829,-2.84256 -11.69816,-5.18041 -1.79008,-1.19048 -4.49429,-3.36962 -5.57449,-4.49206 -0.4968,-0.51623 -0.75546,-1.30822 -0.75546,-2.31319 0,-1.27626 1.38601,-12.31322 2.38168,-18.96551 1.45816,-9.74234 2.92883,-17.55814 5.38492,-28.6178 1.89633,-8.53912 3.4803,-14.3323 5.56137,-20.34018 0.53565,-1.54638 0.78175,-2.47179 1.21716,-4.57673 0.14589,-0.70537 0.28393,-1.34844 0.30674,-1.42906 0.29637,-1.04766 -2.17079,4.72369 -4.11965,9.637 -5.92337,14.93339 -10.75501,30.67338 -13.25628,43.18489 -0.91871,4.59538 -1.35476,7.41319 -1.94186,12.54837 -0.20276,1.77349 -0.78409,6.85215 -1.29183,11.28589 -1,8.73208 -0.99991,8.73065 -0.68304,9.75652 0.17448,0.56489 0.84069,1.9274 1.65325,3.38111 2.94693,5.27236 6.83217,9.50434 11.71296,12.75835 2.75013,1.8335 5.15687,3.02131 8.27616,4.08458 3.22957,1.10088 6.32788,1.78938 10.66804,2.37064 2.41997,0.32409 4.685,0.5092 7.58499,0.61988 1.1127,0.0424 5.50545,-0.0251 6.66894,-0.10248 z"
     id="path404" /></svg>
